<svg width="247" height="84" viewBox="0 0 247 84" fill="none" xmlns="http://www.w3.org/2000/svg">
<path d="M2 9.49997C64.6667 6.49997 200.9 0.999966 244.5 2.99997C220 9.49997 50.5 6.5 7 6.5C-27.8 6.5 128.5 11.1667 211 13.5" stroke="white" stroke-width="4" stroke-linecap="round" stroke-linejoin="round"/>
<path d="M123 42.0001L132.4 38M146.5 32L132.4 38M132.4 38C135.767 42 142.8 51.4 144 57" stroke="white" stroke-width="3" stroke-linecap="round" stroke-linejoin="round"/>
<path d="M142 27.5C143.667 33.5 147.8 46.4 151 50C151 45.5999 152 40.8332 152.5 38.9999C153 42.9999 154.7 49.7999 157.5 44.9999" stroke="white" stroke-width="3" stroke-linecap="round" stroke-linejoin="round"/>
<path d="M164.5 37C163.333 37 161.1 37.8 161.5 41C162 45 163.5 49.5 164.5 47C165.3 45 165.5 40.1667 165.5 38C167 43.3333 171.6 50.9 178 38.5" stroke="white" stroke-width="3" stroke-linecap="round" stroke-linejoin="round"/>
<path d="M173.5 37.5001L181.5 29.8077M186.5 25L181.5 29.8077M181.5 29.8077L177.5 23C180.167 27.1667 185.7 36.5 186.5 40.5" stroke="white" stroke-width="3" stroke-linecap="round" stroke-linejoin="round"/>
<path d="M190.5 26C191.833 27 194 29.9 192 33.5" stroke="white" stroke-width="3" stroke-linecap="round" stroke-linejoin="round"/>
<path d="M205 26.0001C203.167 25.8333 199.4 25.9999 199 27.9999C198.5 30.4999 200 32 203 32C206 32 209.5 35 199 37.5" stroke="white" stroke-width="3" stroke-linecap="round" stroke-linejoin="round"/>
<path d="M153 62.5C153.667 65 155.8 70.8 159 74C158.2 69.2 158.333 64 158.5 62C160 64.8333 163.2 70.6 164 71C164.8 71.4 166 65.1667 166.5 62C167.333 64.3333 169.4 69.1 171 69.5" stroke="white" stroke-width="3" stroke-linecap="round" stroke-linejoin="round"/>
<path d="M177.5 61.5C178.833 61.1666 181.3 60.1 180.5 58.5C179.5 56.5 176 55.5 176 58.5C176 61.5 174 68 179.5 68.5C183.9 68.9 185.667 66.3333 186 65" stroke="white" stroke-width="3" stroke-linecap="round" stroke-linejoin="round"/>
<path d="M188 47.5C187.833 51.3333 188 59.5 190 61.5" stroke="white" stroke-width="3" stroke-linecap="round" stroke-linejoin="round"/>
<path d="M194 65.5L195 66.5" stroke="white" stroke-width="3" stroke-linecap="round" stroke-linejoin="round"/>
</svg>
