<?xml version="1.0" standalone="no"?>
<!DOCTYPE svg PUBLIC "-//W3C//DTD SVG 20010904//EN"
 "http://www.w3.org/TR/2001/REC-SVG-20010904/DTD/svg10.dtd">
<svg version="1.0" xmlns="http://www.w3.org/2000/svg"
 width="1024.000000pt" height="1024.000000pt" viewBox="0 0 1024.000000 1024.000000"
 preserveAspectRatio="xMidYMid meet">
<metadata>
Created by potrace 1.14, written by Peter Selinger 2001-2017
</metadata>
<g transform="translate(0.000000,1024.000000) scale(0.100000,-0.100000)"
fill="#000000" stroke="none">
<path d="M5849 10107 c-56 -14 -94 -51 -124 -120 -26 -59 -34 -67 -108 -116
-46 -29 -116 -63 -161 -77 -74 -24 -98 -27 -268 -29 -188 -3 -220 -8 -307 -47
-24 -11 -125 -40 -225 -64 -211 -51 -187 -45 -301 -79 -49 -15 -103 -33 -120
-40 -16 -7 -79 -34 -139 -59 -190 -81 -310 -163 -391 -270 -13 -17 -57 -43
-120 -70 -245 -106 -364 -175 -429 -247 -41 -45 -55 -47 -122 -18 -121 53
-234 149 -314 268 -92 136 -118 157 -182 147 -22 -4 -50 -14 -64 -23 -50 -32
-128 -205 -140 -308 -2 -22 -7 -106 -10 -188 -7 -156 1 -241 38 -377 36 -137
38 -124 -18 -117 -62 7 -174 53 -267 108 -107 65 -116 69 -151 69 -37 0 -89
-30 -109 -62 -24 -38 -39 -124 -32 -180 12 -104 53 -275 72 -303 7 -11 13 -25
13 -31 0 -6 21 -49 46 -95 50 -91 125 -193 204 -278 27 -30 50 -58 50 -62 0
-4 -28 -24 -63 -45 -245 -147 -449 -509 -353 -629 21 -26 31 -30 80 -32 31 0
78 5 104 12 26 8 72 19 102 25 30 7 84 21 119 31 76 23 131 25 131 5 0 -7 -11
-38 -24 -67 -74 -164 -72 -448 4 -551 11 -15 23 -42 26 -60 9 -53 25 -90 61
-139 40 -56 40 -67 6 -99 -45 -43 -61 -95 -69 -225 -5 -99 -4 -127 10 -159 9
-21 16 -42 16 -46 0 -3 -24 -12 -52 -18 -29 -7 -98 -35 -154 -63 -169 -85
-297 -219 -383 -404 -19 -38 -37 -78 -42 -87 -5 -10 -20 -72 -34 -140 -44
-218 -20 -472 59 -640 29 -62 98 -169 136 -214 37 -42 143 -131 173 -145 35
-16 38 -28 22 -96 -7 -32 -16 -96 -19 -143 -8 -108 6 -151 51 -164 29 -9 31
-12 25 -40 -12 -54 -8 -288 6 -334 10 -35 20 -46 48 -58 33 -14 34 -16 34 -67
0 -73 23 -153 69 -244 47 -94 83 -132 106 -113 8 7 15 21 15 31 0 35 15 19 49
-54 71 -150 180 -290 278 -358 49 -34 66 -36 84 -8 13 20 18 17 98 -71 84 -91
204 -181 299 -224 38 -17 45 -18 58 -4 12 12 13 23 4 63 -13 60 -6 68 25 29
22 -28 132 -121 180 -152 44 -28 207 -103 250 -114 57 -15 57 -32 2 -77 -67
-53 -179 -182 -250 -289 -59 -87 -167 -288 -167 -309 0 -5 -13 -44 -30 -86
-16 -43 -30 -90 -30 -104 0 -33 50 -79 96 -88 20 -3 44 -11 53 -16 9 -5 71
-22 138 -39 309 -76 500 -107 948 -152 196 -19 280 -22 770 -22 731 -1 888 9
1455 94 93 13 379 77 485 106 183 52 215 70 215 121 0 32 -39 148 -82 243 -56
125 -114 224 -237 404 -8 12 -72 78 -143 148 -70 69 -128 130 -128 135 0 5 20
15 45 22 42 12 161 70 223 109 56 34 128 97 182 159 30 34 59 62 64 63 4 0 5
-15 2 -34 -8 -42 1 -66 24 -66 23 0 100 85 140 155 40 70 58 85 74 62 12 -15
16 -15 47 9 41 30 61 51 122 131 176 230 291 511 338 828 16 113 14 109 57
101 190 -33 426 -5 589 69 29 14 56 25 59 25 3 0 38 22 79 50 178 120 320 303
409 524 67 170 87 453 46 656 -32 157 -74 259 -156 385 -90 136 -202 236 -344
306 -44 22 -80 44 -80 50 0 5 11 31 24 57 13 26 38 85 56 132 18 47 36 94 41
105 23 55 84 318 101 440 20 140 16 526 -6 648 -23 120 -18 130 52 112 26 -7
69 -20 95 -29 41 -14 52 -14 81 -2 47 19 63 62 47 128 -16 71 -81 205 -136
282 -83 117 -278 289 -380 336 -59 27 -78 51 -65 82 9 19 8 33 -4 63 -11 25
-13 42 -7 48 7 7 51 6 126 -1 155 -14 205 1 205 58 0 46 -106 119 -197 136
-18 3 -33 10 -33 14 0 4 34 38 75 75 127 113 221 249 232 335 5 32 1 43 -21
65 -34 34 -72 30 -166 -18 -120 -61 -275 -89 -450 -81 -176 8 -180 9 -180 63
0 21 -6 54 -14 73 -16 37 -85 104 -157 154 -32 22 -53 48 -73 88 -36 74 -132
176 -218 232 -98 64 -89 93 38 130 51 15 70 15 156 5 54 -7 107 -10 117 -6 74
23 -17 151 -153 214 -91 42 -175 62 -276 64 -89 2 -90 2 -90 27 0 69 134 229
265 318 77 52 90 77 54 111 -54 50 -195 68 -349 43 -191 -30 -345 -113 -479
-258 -34 -38 -72 -86 -82 -106 -11 -21 -25 -38 -32 -38 -7 0 -35 17 -63 38
-27 20 -87 57 -133 82 -94 51 -179 114 -188 138 -4 9 -22 39 -40 67 -25 35
-34 59 -33 85 4 92 1 102 -43 145 -54 52 -181 98 -394 145 -96 21 -117 22
-174 7z m168 -150 c15 -8 44 -17 63 -21 51 -9 173 -48 185 -58 5 -4 17 -8 27
-8 19 0 22 -11 12 -47 -8 -28 -24 -30 -24 -4 0 11 -4 23 -10 26 -6 3 -10 -4
-10 -17 0 -28 -17 -48 -42 -48 -18 0 -40 31 -36 51 5 22 -20 20 -25 -3 -7 -25
22 -63 55 -74 26 -8 22 -23 -7 -30 -17 -4 -32 -1 -43 9 -24 22 -130 67 -157
67 -12 0 -34 -9 -48 -20 -14 -11 -29 -20 -34 -20 -5 0 -26 9 -48 20 -45 23
-71 25 -78 8 -2 -7 -8 -9 -13 -5 -5 4 -4 11 2 15 5 4 23 34 39 66 17 33 36 62
43 64 7 2 11 -1 10 -6 -5 -16 56 -92 71 -89 37 6 18 39 -53 94 -44 35 -29 54
38 49 30 -3 67 -11 83 -19z m283 -180 c0 -14 -19 -37 -31 -37 -4 0 -2 11 4 25
13 27 27 33 27 12z m-565 -25 c4 -15 22 -21 88 -30 121 -17 179 -29 218 -44
19 -7 44 -12 56 -10 19 3 14 8 -29 30 -28 15 -53 33 -56 40 -7 23 61 13 115
-17 48 -27 57 -28 115 -21 56 6 65 5 85 -14 32 -30 29 -46 -9 -48 -64 -3 -74
-4 -136 -17 -35 -8 -73 -22 -85 -32 l-22 -18 23 -1 c13 0 54 5 92 11 66 11 70
11 97 -12 16 -13 60 -37 98 -53 39 -16 102 -43 140 -61 39 -18 87 -38 108 -46
20 -7 37 -17 37 -22 0 -14 -225 -1 -285 16 -27 9 -72 22 -100 30 -27 8 -76 27
-109 42 -53 24 -65 26 -130 20 -39 -4 -91 -11 -114 -16 -41 -9 -46 -7 -77 20
-24 20 -49 32 -82 36 -26 3 -95 15 -153 26 -58 11 -127 23 -155 28 -38 7 -42
9 -19 10 65 2 239 -21 374 -49 77 -17 155 -30 172 -29 33 1 33 1 -7 11 -198
49 -246 60 -290 68 -80 13 -267 21 -305 12 -19 -5 -46 -6 -60 -2 l-25 6 25 7
c14 4 36 7 49 7 26 0 50 6 146 38 97 32 164 65 168 84 7 24 34 23 42 0z m70 8
c3 -5 4 -10 1 -10 -2 0 -12 -3 -20 -6 -12 -5 -15 -2 -10 10 7 18 20 21 29 6z
m60 0 c3 -5 1 -10 -4 -10 -6 0 -11 5 -11 10 0 6 2 10 4 10 3 0 8 -4 11 -10z
m138 -7 c-3 -7 -14 -13 -24 -13 -21 0 -26 16 -6 23 23 7 35 4 30 -10z m-816
-157 c65 -18 174 -43 243 -55 168 -29 170 -29 170 -45 0 -16 -166 -116 -192
-116 -9 0 -89 36 -178 81 l-160 81 -43 -17 c-23 -9 -71 -32 -106 -51 -42 -24
-67 -32 -74 -25 -6 6 6 19 38 38 146 86 175 137 40 71 -44 -22 -161 -61 -215
-73 -19 -4 -73 -19 -120 -32 -47 -14 -99 -28 -117 -30 -37 -6 -68 -36 -59 -58
16 -44 104 -43 541 5 55 6 136 8 180 5 230 -16 298 -15 335 5 61 32 276 120
293 120 8 0 23 -7 31 -16 26 -26 3 -50 -71 -74 -38 -12 -77 -28 -88 -35 -12
-7 -30 -15 -40 -18 -17 -4 -17 -5 3 -6 13 0 107 20 210 46 256 64 284 63 472
-6 80 -29 161 -58 180 -64 19 -6 43 -17 52 -25 13 -10 21 -11 37 -2 12 6 26 8
33 4 6 -4 18 -7 27 -8 16 -1 92 -78 124 -126 20 -29 22 -50 4 -50 -7 0 -35
-11 -63 -24 -27 -13 -64 -29 -82 -36 -24 -9 -30 -15 -20 -21 15 -10 32 -6 168
36 157 50 249 73 312 81 52 6 61 3 120 -30 161 -93 632 -435 618 -450 -3 -2
-77 -1 -165 4 -88 4 -221 7 -295 6 -119 -2 -140 -5 -177 -25 -64 -35 -90 -30
-226 38 -108 53 -138 64 -223 76 -55 9 -112 19 -129 24 -50 15 -163 39 -315
67 -80 14 -148 28 -152 30 -4 3 -96 18 -205 35 -143 22 -241 31 -353 33 l-155
3 -85 43 c-47 24 -136 77 -199 118 l-114 74 -162 3 c-90 2 -171 6 -181 9 -19
6 -266 44 -339 53 -22 2 -58 -1 -80 -6 l-40 -11 38 5 c22 2 37 -1 37 -7 0 -6
10 -8 23 -4 12 3 67 -5 122 -18 174 -42 276 -58 420 -65 130 -7 144 -9 196
-38 31 -16 67 -33 80 -37 54 -16 -7 -17 -94 -1 -158 29 -428 83 -527 107 -74
17 -128 22 -245 23 -82 1 -166 5 -185 10 -19 4 -44 9 -54 10 -60 5 4 47 183
120 63 26 123 48 135 49 12 2 39 11 61 20 22 10 128 40 235 67 258 67 393 109
403 125 12 20 33 18 164 -20z m2235 -19 c-27 -30 -62 -77 -76 -105 -29 -56
-41 -66 -34 -27 6 27 -1 32 -20 13 -10 -10 -15 -10 -23 2 -8 13 -11 12 -24 -4
-8 -11 -15 -26 -15 -33 0 -7 -4 -13 -10 -13 -5 0 -10 4 -10 9 0 17 51 119 65
131 19 16 166 80 184 80 8 0 -9 -24 -37 -53z m-1026 26 c7 -10 13 -31 13 -48
l0 -30 -23 26 c-13 15 -33 30 -46 34 l-22 7 23 13 c33 18 40 18 55 -2z m-1379
-119 c-16 -8 -34 -13 -40 -11 -7 3 -1 9 13 15 38 16 59 13 27 -4z m90 10 c13
-4 21 -10 18 -14 -3 -4 1 -8 8 -7 6 0 21 -1 32 -2 17 -1 18 -3 5 -11 -13 -9
-13 -10 0 -11 32 -2 54 -8 107 -34 31 -14 53 -28 50 -32 -4 -3 -14 -2 -24 2
-10 3 -72 9 -138 12 -66 3 -121 6 -121 6 -1 1 -5 13 -9 26 -5 17 -4 21 5 16 9
-6 9 -3 1 13 -11 20 -10 21 19 10 17 -6 34 -7 38 -4 3 4 -4 9 -16 13 -12 3
-22 9 -22 14 0 10 16 11 47 3z m-147 -28 c0 -2 -7 -7 -16 -10 -8 -3 -12 -2 -9
4 6 10 25 14 25 6z m45 -16 c-11 -5 -27 -9 -35 -9 -9 0 -8 4 5 9 11 5 27 9 35
9 9 0 8 -4 -5 -9z m-459 -45 c-17 -9 -37 -14 -45 -12 -20 5 23 25 54 26 16 1
13 -3 -9 -14z m-76 -13 c-8 -3 -18 -10 -22 -16 -5 -7 -8 -5 -8 6 0 18 19 29
35 20 5 -3 2 -8 -5 -10z m559 14 c-11 -9 -69 -14 -69 -6 0 6 17 10 37 10 20 0
34 -2 32 -4z m-154 -16 c-16 -4 -41 -8 -55 -8 -23 -1 -23 0 -5 8 11 5 36 8 55
8 l35 0 -30 -8z m68 3 c-7 -2 -19 -2 -25 0 -7 3 -2 5 12 5 14 0 19 -2 13 -5z
m-383 -14 c0 -7 7 -8 18 -4 9 3 62 8 117 10 88 4 93 3 40 -5 -155 -23 -184
-26 -179 -18 3 4 -5 8 -18 8 -18 0 -20 2 -8 10 20 13 30 12 30 -1z m-42 -26
c-10 -2 -26 -2 -35 0 -10 3 -2 5 17 5 19 0 27 -2 18 -5z m2317 -87 c61 -30
119 -57 130 -61 17 -5 17 -8 5 -15 -49 -26 -76 -22 -146 25 -38 26 -90 59
-116 73 -27 15 -48 31 -48 36 0 17 67 -5 175 -58z m16 -104 c-7 -2 -25 8 -40
23 l-26 27 39 -23 c22 -13 34 -25 27 -27z m-52 4 c19 -23 -4 -28 -24 -6 -15
17 -16 20 -3 20 9 0 21 -6 27 -14z m-2361 -21 c114 -29 420 -90 532 -106 41
-6 79 -15 84 -20 10 -9 -6 -48 -46 -109 l-23 -35 30 20 c17 10 66 39 110 63
l80 43 85 -41 85 -41 172 -2 c94 -1 174 -5 178 -9 4 -3 -3 -34 -16 -67 -12
-34 -20 -63 -18 -64 2 -1 22 -11 44 -21 l40 -17 -34 28 c-33 28 -33 29 -18 59
9 17 22 35 29 42 17 14 295 -17 418 -46 47 -11 168 -39 270 -62 211 -47 252
-59 246 -69 -3 -4 11 -5 30 -3 70 8 76 2 148 -145 38 -76 75 -147 83 -158 14
-19 15 -19 8 5 -4 14 -20 51 -36 83 -15 31 -24 57 -20 57 4 0 29 -46 56 -102
26 -57 54 -116 61 -132 16 -34 17 -36 6 -36 -9 0 -158 127 -266 227 -62 58
-90 74 -70 42 4 -7 7 -38 7 -68 l0 -56 4 53 c2 29 8 52 13 50 23 -8 140 -133
136 -144 -4 -9 2 -13 17 -11 16 1 22 -3 21 -15 -1 -10 5 -18 15 -19 9 0 11 -3
5 -5 -5 -2 -40 9 -77 26 -37 16 -77 30 -89 30 -19 0 -20 2 -8 10 10 7 4 8 -20
3 -19 -4 -71 -8 -115 -8 -69 0 -88 4 -137 29 -67 34 -130 84 -123 97 4 5 2 9
-4 9 -27 0 -16 -22 31 -60 104 -83 119 -88 268 -98 l135 -8 186 -92 c277 -135
387 -178 569 -217 36 -8 79 -18 95 -23 17 -5 40 -6 52 -1 27 10 110 -2 288
-42 77 -17 167 -36 200 -43 79 -16 106 -32 147 -86 19 -25 63 -82 99 -128 83
-108 84 -110 77 -117 -3 -3 -25 3 -49 14 -24 11 -89 32 -144 47 -55 15 -104
30 -110 34 -5 4 -27 11 -49 14 -21 4 -46 11 -55 16 -9 5 -90 32 -180 61 -90
29 -175 62 -190 74 -62 52 -165 98 -361 162 -82 27 -502 137 -590 155 -30 6
-131 31 -225 55 -93 24 -204 51 -245 59 -102 21 -306 70 -415 101 -49 14 -110
29 -135 33 -25 5 -101 20 -170 35 -69 15 -136 29 -150 31 -50 7 -196 34 -240
43 -25 5 -65 12 -90 16 -25 4 -72 13 -105 20 -33 8 -87 17 -120 20 -89 10
-216 32 -308 54 -45 11 -125 29 -177 41 -52 11 -120 27 -150 35 -92 24 -130
28 -131 13 0 -9 -2 -10 -5 -1 -7 16 -51 29 -169 48 -156 24 -268 33 -282 22
-9 -6 -13 -6 -13 1 0 15 -30 19 -69 9 -24 -6 -36 -5 -41 3 -6 9 -13 9 -26 1
-17 -9 -17 -10 -2 -11 9 0 19 -4 23 -9 6 -11 -54 -9 -72 2 -6 4 -18 4 -27 1
-9 -3 -16 -2 -16 3 0 6 -21 9 -46 8 -25 0 -47 2 -50 6 -9 15 65 60 203 123
162 74 189 84 178 66 -4 -6 -27 -20 -51 -30 -40 -17 -59 -40 -34 -40 16 0 60
23 60 31 0 5 7 5 17 2 11 -4 14 -3 9 5 -4 7 -2 12 3 12 6 0 11 -4 11 -8 0 -8
36 -8 60 1 8 3 29 8 45 10 17 3 41 9 54 13 16 5 22 4 18 -3 -5 -7 0 -9 12 -6
10 3 21 0 25 -5 3 -6 -25 -17 -67 -27 -74 -17 -151 -40 -199 -59 -31 -12 -39
-30 -10 -23 9 3 53 13 97 22 44 10 114 26 157 36 42 11 87 19 100 19 16 0 48
-25 103 -80 73 -73 86 -82 157 -105 82 -27 113 -31 103 -15 -3 6 -14 10 -25
10 -10 0 -32 13 -49 29 -18 17 -41 33 -51 36 -19 6 -180 163 -180 175 0 10
-68 40 -89 40 -25 0 -88 27 -97 41 -5 8 2 10 22 6 16 -3 45 1 64 10 40 16 110
10 146 -13 25 -17 43 -2 25 20 -9 11 -2 15 35 20 73 10 79 9 63 -10 -22 -27
-112 -74 -142 -74 -40 0 -29 -24 12 -28 44 -5 122 35 191 97 61 56 78 59 168
36z m-1839 -129 c54 -87 231 -225 367 -286 79 -36 238 -90 263 -90 11 0 22 -4
25 -8 5 -8 85 -25 276 -57 l85 -14 -80 4 c-133 7 -169 12 -340 56 -21 6 -44
14 -50 18 -5 4 -30 13 -55 20 -25 7 -78 28 -119 47 -85 39 -93 41 -60 16 31
-24 153 -80 198 -92 20 -5 77 -21 126 -35 50 -15 105 -27 122 -28 18 0 27 -4
21 -8 -9 -6 -8 -11 1 -23 16 -19 8 -20 -39 -5 -76 23 -206 59 -214 59 -5 0 -2
-8 7 -18 18 -20 23 -52 8 -52 -5 0 -20 13 -33 29 -14 16 -35 34 -49 41 l-24
13 20 -23 c16 -19 17 -22 4 -17 -9 3 -26 -1 -37 -9 -18 -12 -19 -18 -9 -45 7
-17 27 -44 45 -60 18 -16 30 -29 27 -29 -14 0 -54 27 -130 86 -44 35 -86 64
-94 64 -15 0 -13 -7 17 -87 11 -29 16 -53 11 -53 -5 0 -9 5 -9 10 0 6 -5 16
-10 23 -6 7 -17 21 -25 32 -7 11 -17 17 -21 13 -4 -4 -1 -14 6 -23 7 -9 10
-18 6 -22 -3 -3 -6 -1 -6 6 0 7 -9 11 -20 9 -14 -2 -28 12 -55 56 -19 32 -35
62 -35 66 0 4 -13 36 -29 72 -33 71 -76 204 -85 258 -4 20 10 -6 31 -57 32
-81 38 -90 50 -75 11 14 13 14 11 2 -2 -8 3 -14 10 -12 6 1 12 -5 12 -13 0 -8
4 -15 9 -15 6 0 20 -18 32 -40 13 -22 26 -40 30 -40 4 0 10 -11 13 -25 4 -14
11 -25 16 -25 6 0 10 2 10 4 0 14 -54 103 -93 154 -25 33 -51 70 -57 83 -24
46 -73 119 -81 119 -4 0 -12 14 -18 30 -13 39 -8 38 18 -4z m1181 27 c-8 -3
-32 -14 -52 -25 -21 -10 -38 -15 -38 -10 0 12 61 41 85 41 14 -1 16 -2 5 -6z
m-170 -273 c0 -5 -6 -10 -14 -10 -8 0 -18 5 -21 10 -3 6 3 10 14 10 12 0 21
-4 21 -10z m40 -10 c0 -5 -4 -10 -10 -10 -5 0 -10 5 -10 10 0 6 5 10 10 10 6
0 10 -4 10 -10z m200 -21 c74 -12 149 -22 166 -24 17 -1 35 -5 42 -8 6 -4 37
-9 69 -12 32 -2 58 -4 58 -5 0 -1 11 -3 25 -5 14 -2 70 -13 125 -25 55 -12
114 -24 130 -26 17 -3 77 -13 135 -24 58 -10 161 -29 230 -41 69 -13 127 -25
130 -28 3 -4 19 -7 35 -8 41 -3 107 -13 125 -20 8 -3 25 -5 37 -4 12 1 41 -3
65 -10 51 -14 71 -18 119 -22 20 -1 44 -9 53 -16 9 -7 22 -11 30 -8 8 3 17 3
20 0 4 -4 25 -8 49 -10 23 -2 49 -6 57 -10 8 -3 32 -8 52 -10 21 -2 50 -10 65
-18 16 -8 40 -15 54 -15 14 0 39 -4 55 -9 16 -5 74 -19 129 -32 55 -12 143
-33 195 -46 52 -13 127 -30 165 -37 39 -8 81 -18 95 -24 14 -6 97 -27 185 -47
88 -20 207 -49 265 -65 58 -15 128 -33 155 -39 28 -6 93 -25 145 -41 52 -16
136 -41 185 -56 120 -36 343 -123 352 -136 4 -8 0 -9 -11 -5 -9 4 -42 14 -74
23 -31 9 -131 38 -222 65 -194 58 -210 62 -315 90 -44 11 -156 41 -250 65 -93
25 -199 51 -235 59 -75 16 -478 120 -500 129 -8 3 -28 8 -45 10 -16 2 -48 8
-70 14 -22 6 -52 14 -67 17 -55 10 -79 16 -235 51 -87 20 -167 38 -178 40 -11
1 -94 19 -185 38 -139 30 -333 66 -430 81 -50 7 -237 45 -294 59 -33 8 -63 13
-67 10 -4 -2 -19 0 -33 6 -14 5 -41 12 -59 14 -90 12 -223 41 -228 49 -4 5
-11 7 -16 4 -5 -3 -65 5 -133 17 -69 13 -161 28 -205 35 -106 16 -125 21 -125
32 0 5 10 7 23 4 12 -3 83 -15 157 -26z m3145 -148 c40 -15 80 -19 205 -19 85
-1 175 -5 200 -11 25 -5 88 -18 140 -29 154 -34 291 -60 345 -67 100 -13 125
-24 141 -60 16 -39 19 -121 4 -130 -5 -3 -22 1 -37 9 -56 31 -57 31 -38 60 16
25 17 29 3 43 -9 8 -33 19 -55 23 -109 22 -352 80 -375 89 -45 17 -33 -6 20
-40 26 -16 65 -35 87 -41 52 -15 50 -13 31 -43 -15 -23 -15 -28 -1 -55 21 -40
152 -192 179 -207 48 -27 154 -50 311 -68 85 -9 182 -75 110 -75 -13 0 -102
15 -197 34 -95 19 -238 46 -318 61 -80 14 -174 34 -210 45 -36 10 -117 30
-180 44 -119 28 -240 72 -240 87 0 10 35 4 80 -13 31 -12 121 -36 175 -48 22
-4 73 -15 114 -24 l74 -16 39 25 c37 25 38 26 38 89 0 57 -3 67 -29 95 -16 17
-33 31 -38 31 -8 0 -28 -13 -103 -65 -40 -28 -50 -30 -194 -40 -83 -5 -157
-14 -164 -19 -19 -12 -24 -4 -72 114 -23 58 -59 133 -81 168 -21 35 -39 65
-39 68 0 9 26 4 75 -15z m-3911 -56 c3 -8 1 -15 -3 -15 -5 0 -11 7 -15 15 -3
8 -1 15 3 15 5 0 11 -7 15 -15z m-24 -40 c0 -8 -24 -1 -32 10 -17 22 -7 34 12
15 11 -11 20 -22 20 -25z m-226 -61 c5 -14 4 -15 -9 -4 -17 14 -19 20 -6 20 5
0 12 -7 15 -16z m291 -34 c3 -5 2 -10 -4 -10 -5 0 -13 5 -16 10 -3 6 -2 10 4
10 5 0 13 -4 16 -10z m4725 -40 c8 -5 11 -10 5 -10 -5 0 -17 5 -25 10 -8 5
-10 10 -5 10 6 0 17 -5 25 -10z m-4332 -57 c18 -8 50 -17 70 -20 20 -3 42 -9
47 -13 6 -4 35 -13 65 -20 30 -7 63 -16 73 -21 10 -6 21 -8 25 -5 5 3 26 1 48
-5 21 -5 104 -13 184 -19 184 -13 488 -31 562 -34 31 -2 63 -8 70 -14 19 -15
329 -182 339 -182 4 0 11 -5 15 -11 5 -9 -1 -10 -22 -4 -16 5 -76 9 -134 10
-58 1 -132 5 -165 8 -102 11 -15 -11 109 -28 61 -8 115 -16 120 -17 10 -1
-164 -16 -221 -19 -13 -1 -23 -5 -23 -11 0 -13 -39 -1 -72 23 -29 20 -38 17
-15 -4 23 -23 102 -72 167 -105 54 -27 59 -32 31 -27 -59 9 -278 125 -521 275
-98 60 -126 70 -80 28 51 -47 175 -156 247 -219 34 -29 60 -56 57 -58 -3 -3
-8 -1 -12 5 -4 6 -20 18 -37 27 -16 8 -55 37 -86 64 -127 110 -134 114 -124
84 6 -19 4 -21 -19 -15 -15 4 -26 2 -26 -4 0 -12 105 -120 172 -177 26 -22 48
-44 48 -48 0 -5 -7 -1 -17 8 -9 9 -39 34 -67 55 -28 21 -80 63 -115 94 -77 67
-204 156 -223 156 -8 0 -6 -5 6 -11 10 -6 35 -28 55 -48 20 -20 45 -41 56 -47
11 -7 17 -15 13 -19 -4 -4 -20 2 -36 14 -33 23 -53 28 -34 9 7 -7 12 -17 12
-22 0 -6 -5 -5 -12 2 -7 7 -16 12 -21 12 -5 0 7 -20 28 -45 l37 -46 -56 30
c-31 17 -71 37 -91 45 -34 15 -34 14 -55 -19 l-21 -33 31 -33 c34 -37 41 -62
10 -34 -11 10 -22 16 -24 14 -8 -7 41 -57 62 -63 11 -4 23 -14 26 -22 7 -18 5
-17 -91 49 -40 27 -75 58 -78 68 -4 10 -11 19 -16 19 -12 0 -182 163 -221 213
-33 41 -31 62 2 32 11 -10 23 -15 27 -12 3 4 1 7 -5 7 -7 0 -12 7 -12 15 0 8
-4 15 -9 15 -5 0 -12 8 -16 18 -12 29 -15 72 -5 72 6 0 9 -5 8 -12 -2 -6 5
-14 15 -16 15 -3 16 -1 5 24 -9 18 -32 36 -75 56 -35 16 -63 30 -63 32 0 7 43
-5 78 -21z m-108 1 c0 -8 -4 -12 -10 -9 -5 3 -10 10 -10 16 0 5 5 9 10 9 6 0
10 -7 10 -16z m1077 -39 c25 -19 43 -35 39 -35 -9 0 -57 31 -80 52 -34 31 -7
19 41 -17z m-976 -48 c-10 -9 -11 -8 -5 6 3 10 9 15 12 12 3 -3 0 -11 -7 -18z
m1474 3 c216 -23 349 -43 385 -58 19 -8 -5 -9 -94 -5 l-118 6 23 -40 c22 -38
134 -121 188 -138 11 -3 21 -10 21 -15 0 -4 -37 7 -82 25 -46 18 -110 43 -143
55 -109 41 -395 175 -395 184 0 8 2 8 215 -14z m-2842 -50 c46 -23 161 -62
262 -91 125 -35 211 -66 280 -101 159 -80 228 -120 216 -127 -6 -4 -40 -5 -76
-4 -59 3 -81 -6 -55 -22 6 -3 10 -11 10 -17 0 -7 -12 0 -27 14 -26 24 -59 33
-106 30 -16 -2 -15 -7 10 -39 47 -61 48 -64 9 -48 -36 15 -116 60 -176 99 -19
13 -69 45 -110 72 -122 79 -353 273 -327 274 5 0 46 -18 90 -40z m2110 -215
c-3 -9 -8 -14 -10 -11 -3 3 -2 9 2 15 9 16 15 13 8 -4z m747 -41 c0 -2 -15 -4
-32 -4 -23 0 -29 3 -19 9 12 8 51 4 51 -5z m-560 -184 c0 -5 -2 -10 -4 -10 -3
0 -8 5 -11 10 -3 6 -1 10 4 10 6 0 11 -4 11 -10z m2224 -132 c-4 -7 -18 -27
-30 -45 -24 -32 -30 -53 -16 -53 4 0 13 5 20 12 9 9 12 8 12 -7 0 -17 1 -17
20 0 34 31 33 10 -2 -31 -49 -58 -70 -77 -124 -114 l-49 -33 45 48 45 48 -33
-7 c-18 -3 -53 -22 -78 -42 -45 -37 -71 -42 -37 -7 10 11 30 33 44 49 115 133
172 194 180 194 6 0 7 -6 3 -12z m736 -267 c55 -116 65 -134 89 -149 18 -12
19 -11 14 7 -3 11 -11 26 -19 32 -8 6 -14 19 -14 28 1 13 3 13 15 -3 15 -19
15 -19 15 2 0 18 -23 62 -57 111 -2 2 -6 2 -9 -2 -4 -3 3 -22 14 -42 12 -19
18 -35 13 -35 -4 0 -14 12 -21 28 -8 15 -21 35 -29 45 -14 16 -13 17 5 11 16
-6 17 -5 7 7 -15 15 -17 32 -4 27 11 -4 68 -79 113 -150 34 -52 148 -281 148
-296 0 -4 8 -23 19 -42 10 -19 21 -46 25 -60 9 -30 -53 69 -82 131 -24 52 -49
85 -58 77 -3 -4 -1 -16 6 -27 6 -12 8 -21 6 -21 -12 0 -46 46 -46 62 0 27 -64
56 -85 38 -19 -16 -19 -57 0 -90 8 -14 14 -31 15 -37 0 -27 -18 -10 -58 52
-33 52 -46 65 -67 65 -14 0 -28 -7 -32 -16 -15 -38 64 -210 141 -309 67 -85
88 -117 73 -109 -38 22 -187 229 -224 312 -53 121 -73 162 -78 162 -9 0 7 -54
32 -103 13 -27 22 -51 19 -54 -3 -3 -21 29 -40 71 -39 83 -81 214 -73 222 3 3
8 -8 12 -25 4 -17 11 -33 16 -36 5 -4 9 -17 9 -30 0 -13 5 -27 11 -31 12 -7 8
56 -7 119 -11 45 21 34 78 -28 56 -61 98 -75 98 -32 0 28 -35 138 -60 187 -9
19 -20 46 -24 60 -14 50 51 -39 94 -129z m321 94 c120 -62 256 -190 331 -310
65 -105 30 -81 -54 38 -47 65 -59 68 -30 8 l20 -41 -23 0 c-18 0 -24 -7 -28
-35 -5 -32 14 -129 38 -190 5 -12 -1 -9 -16 10 -94 117 -167 192 -196 200 -32
8 -38 2 -23 -25 6 -11 10 -31 8 -43 -5 -34 -130 278 -128 320 1 15 29 -42 46
-92 29 -84 59 -125 95 -125 28 0 78 20 106 42 25 20 -76 174 -150 228 -45 33
-43 39 4 15z m-784 -27 c-1 -13 -6 -26 -10 -29 -4 -3 -3 -18 2 -32 6 -15 12
-57 15 -94 2 -38 9 -102 15 -143 10 -69 18 -94 42 -142 5 -10 9 -23 9 -29 0
-11 40 -100 83 -186 12 -24 25 -43 29 -43 5 0 8 -9 8 -20 0 -11 5 -20 11 -20
6 0 9 -7 5 -15 -3 -8 -1 -14 5 -12 6 1 16 -7 22 -18 7 -10 22 -28 35 -38 12
-10 22 -27 22 -38 0 -22 -10 -24 -29 -6 -11 10 -12 9 -6 -3 5 -8 16 -20 26
-27 11 -9 18 -33 22 -85 3 -40 8 -84 11 -98 2 -14 9 -50 15 -80 10 -54 39
-182 61 -270 7 -25 16 -54 21 -65 6 -11 11 -31 13 -45 2 -14 7 -34 11 -45 7
-21 11 -29 43 -105 11 -25 23 -64 27 -87 4 -24 11 -43 16 -43 5 0 9 -9 9 -19
0 -11 5 -23 11 -26 5 -4 8 -12 6 -18 -2 -7 5 -27 15 -46 10 -18 17 -35 15 -38
-3 -2 -24 5 -48 15 -24 11 -77 30 -117 42 -63 19 -74 25 -86 53 -20 48 -71 94
-140 127 -64 29 -276 87 -356 96 -60 7 -66 16 -36 51 52 62 62 144 28 224 -23
53 -95 130 -142 152 -8 4 -28 16 -45 26 -16 11 -37 20 -45 20 -8 1 -27 7 -42
15 -32 17 -250 70 -373 91 -184 31 -490 41 -639 20 -71 -9 -154 -42 -210 -83
-38 -28 -56 -51 -78 -99 -15 -34 -28 -77 -28 -95 0 -56 44 -134 95 -170 l46
-33 -33 -7 c-18 -4 -53 -9 -78 -12 -66 -8 -160 -60 -194 -106 -30 -40 -30 -40
-85 -34 -31 3 -65 8 -76 9 -11 2 -65 4 -121 4 l-100 1 -30 43 c-37 51 -123
104 -207 127 -59 17 -60 18 -32 25 42 11 109 67 129 109 22 47 20 121 -5 173
-63 130 -244 204 -584 241 -117 12 -487 8 -545 -7 -129 -32 -214 -89 -256
-172 -31 -62 -33 -140 -3 -188 11 -18 19 -34 17 -36 -2 -1 -80 -5 -175 -9 -94
-3 -179 -9 -189 -13 -14 -5 -16 -3 -10 18 5 13 13 47 18 74 13 62 77 315 85
335 3 8 7 25 9 38 1 13 7 29 12 35 9 11 23 64 24 84 0 5 3 13 8 18 4 6 11 26
16 45 10 43 9 42 17 60 3 8 17 44 30 80 13 36 33 85 44 110 11 25 28 64 38 88
10 23 24 42 31 42 8 0 11 -6 7 -17 -6 -14 -3 -14 19 3 21 15 23 21 12 27 -8 5
-12 12 -9 18 3 5 -1 6 -9 3 -9 -3 -16 -1 -16 4 0 6 9 14 20 17 13 4 20 15 20
31 0 13 2 24 3 24 2 0 29 -9 60 -19 32 -11 57 -18 57 -15 0 3 6 2 13 -3 6 -4
20 -9 29 -10 37 -6 202 -44 209 -48 4 -3 38 -8 76 -11 37 -3 75 -8 83 -10 8
-3 127 -7 264 -10 137 -3 254 -8 260 -11 6 -4 17 -8 26 -9 8 0 42 -8 75 -17
301 -80 868 -93 1170 -27 200 43 400 103 440 130 6 4 28 13 50 20 22 7 46 17
52 22 7 6 20 8 28 4 9 -3 15 0 15 9 0 8 5 15 12 15 6 0 21 8 32 17 12 10 6 1
-13 -19 -19 -20 -43 -38 -55 -40 -12 -2 -20 -9 -18 -16 1 -8 -2 -11 -8 -7 -9
6 -95 -39 -105 -55 -6 -9 45 3 67 16 20 11 -2 -8 -52 -47 -77 -58 -86 -80 -47
-123 19 -23 31 -26 92 -28 71 -2 245 25 277 42 10 6 23 10 30 10 7 0 26 7 42
15 15 8 38 17 50 19 45 9 148 55 154 69 2 4 11 7 20 7 10 0 28 9 42 20 14 11
31 20 38 20 6 0 12 5 12 10 0 6 6 10 14 10 8 0 16 3 18 8 2 4 33 30 71 57 37
27 67 52 67 57 0 4 7 8 15 8 8 0 15 5 15 10 0 20 39 53 55 46 10 -3 13 -2 10
4 -5 8 82 130 92 130 2 0 2 -10 0 -22z m232 -63 c0 -5 -4 -3 -9 5 -5 8 -9 22
-9 30 0 16 17 -16 18 -35z m101 12 c0 -5 -4 -5 -10 -2 -5 3 -10 14 -10 23 0
15 2 15 10 2 5 -8 10 -19 10 -23z m1182 -28 c58 -19 115 -49 93 -49 -28 1
-170 49 -173 58 -5 17 10 15 80 -9z m-1174 -25 c-4 -3 -12 5 -18 18 -12 22
-12 22 6 6 10 -10 15 -20 12 -24z m512 16 c0 -5 -2 -10 -4 -10 -3 0 -8 5 -11
10 -3 6 -1 10 4 10 6 0 11 -4 11 -10z m-430 -87 c0 -4 -16 8 -35 27 -19 19
-35 37 -35 42 0 4 16 -8 35 -28 19 -19 35 -38 35 -41z m484 -6 c7 -27 -6 -40
-30 -34 -15 4 -14 5 4 6 21 1 22 2 8 17 -9 8 -16 22 -16 29 0 22 27 7 34 -18z
m390 -13 c47 -47 73 -84 59 -84 -9 0 -123 115 -123 124 0 15 20 2 64 -40z
m-6043 2 c1 -6 1 -17 0 -23 -1 -9 8 -11 30 -6 23 4 30 3 25 -5 -4 -7 -16 -12
-27 -12 -10 0 -19 -6 -20 -12 -1 -7 -2 -22 -3 -33 -1 -12 -14 -24 -39 -33 -51
-20 -59 -6 -18 28 52 44 34 52 -42 20 l-69 -29 48 52 c27 29 55 57 63 63 17
13 50 7 52 -10z m89 -44 c0 -9 -60 -46 -65 -40 -6 6 8 22 30 35 24 14 35 16
35 5z m5090 -116 c0 -2 -7 -6 -15 -10 -8 -3 -15 -1 -15 4 0 6 7 10 15 10 8 0
15 -2 15 -4z m-62 -101 c-3 -3 -9 2 -12 12 -6 14 -5 15 5 6 7 -7 10 -15 7 -18z
m382 -826 c0 -6 -4 -7 -10 -4 -5 3 -10 11 -10 16 0 6 5 7 10 4 6 -3 10 -11 10
-16z m-4085 -154 c419 -30 780 -102 873 -172 18 -14 43 -44 54 -68 l21 -43 96
-1 c128 -2 324 -20 335 -31 5 -5 6 -16 2 -25 -5 -13 -13 -15 -33 -10 -28 7
-275 24 -350 25 -38 0 -44 4 -78 50 -40 55 -75 76 -175 108 -134 41 -415 87
-695 112 -352 32 -822 35 -1005 6 -125 -19 -153 -31 -190 -82 -42 -56 -57 -37
-19 25 38 62 74 83 177 103 158 29 611 31 987 3z m-412 -47 c-2 -5 -23 -8 -46
-8 -23 0 -37 4 -30 8 15 9 82 9 76 0z m-200 -5 c-7 -2 -19 -2 -25 0 -7 3 -2 5
12 5 14 0 19 -2 13 -5z m54 1 c-3 -3 -12 -4 -19 -1 -8 3 -5 6 6 6 11 1 17 -2
13 -5z m40 0 c-3 -3 -12 -4 -19 -1 -8 3 -5 6 6 6 11 1 17 -2 13 -5z m201 -1
c-16 -2 -40 -2 -55 0 -16 2 -3 4 27 4 30 0 43 -2 28 -4z m-78 -81 c0 -5 -9
-17 -21 -28 -33 -30 -119 -141 -119 -153 0 -6 -7 -14 -15 -17 -8 -4 -15 -11
-15 -17 0 -6 -14 -40 -31 -76 -47 -101 -47 -101 -68 -179 -38 -139 -52 -276
-47 -452 6 -212 23 -298 86 -422 10 -21 16 -39 12 -42 -15 -9 -143 48 -181 80
-66 57 -136 237 -111 284 5 9 11 61 15 115 4 55 8 120 10 145 2 25 6 99 10
165 l7 121 -41 19 c-48 21 -73 46 -54 52 10 4 10 10 2 25 -6 12 -7 23 -2 27 5
3 9 17 9 31 1 43 24 203 37 255 l12 50 95 11 c114 13 410 17 410 6z m2446 -13
c140 -2 431 -22 559 -38 44 -6 136 -17 205 -26 202 -25 267 -35 428 -72 244
-54 307 -87 341 -176 16 -42 2 -53 -21 -16 -11 17 -26 38 -33 46 -23 23 -114
59 -195 77 -147 34 -159 36 -172 36 -10 0 -9 -3 2 -9 8 -6 18 -7 22 -5 4 3 8
0 8 -6 0 -7 -7 -9 -16 -6 -9 3 -26 6 -40 6 -17 0 -22 4 -18 15 4 10 0 15 -11
15 -9 0 -13 -4 -10 -10 13 -22 -157 -3 -178 20 -10 10 -8 12 7 6 10 -3 48 -11
85 -16 61 -8 81 -7 69 5 -7 8 -399 55 -409 50 -4 -3 -11 -1 -14 5 -5 8 -11 8
-20 0 -8 -7 -14 -7 -17 -1 -1 5 -36 13 -75 17 -58 5 -73 4 -73 -7 0 -11 -2
-11 -10 1 -6 9 -28 15 -62 17 -29 1 -71 4 -93 7 -22 3 -162 8 -310 12 -379 10
-536 -12 -567 -80 -11 -26 -28 -35 -28 -15 0 6 5 20 11 32 41 79 122 107 339
116 85 3 158 5 161 4 3 -1 64 -3 135 -4z m-1866 -25 c405 -46 588 -95 623
-168 20 -43 17 -198 -8 -436 -1 -8 -2 -30 -3 -47 -4 -65 -17 -31 -19 47 -4
144 -83 282 -219 378 -70 49 -195 73 -303 58 -49 -7 -156 -55 -186 -84 -83
-80 -121 -133 -165 -235 -11 -26 -18 -52 -15 -58 4 -5 2 -15 -4 -22 -12 -15
-7 -189 7 -232 48 -146 148 -257 271 -300 25 -9 54 -21 63 -26 10 -5 57 -9
105 -9 100 0 197 29 261 76 85 63 153 161 167 243 4 23 10 39 14 37 9 -6 -2
-100 -24 -201 -15 -69 -23 -87 -61 -130 -55 -61 -109 -150 -129 -213 -17 -51
-34 -63 -115 -81 -80 -17 -171 -22 -360 -22 -213 1 -362 10 -485 32 -113 19
-118 22 -145 92 -13 34 -27 67 -31 72 -24 35 -57 298 -53 435 4 137 10 185 41
300 53 202 221 426 371 497 42 20 58 22 157 17 61 -3 171 -12 245 -20z m-1356
-30 c3 -8 2 -12 -4 -9 -6 3 -10 10 -10 16 0 14 7 11 14 -7z m1949 -1 c9 -3 17
-9 17 -14 0 -5 -15 -2 -32 7 -39 19 -51 30 -23 19 11 -4 28 -10 38 -12z m997
-20 c-78 -4 -200 -24 -206 -34 -3 -5 -13 -9 -22 -9 -10 0 -13 3 -6 10 17 17
137 38 214 37 56 0 61 -1 20 -4z m97 1 c-3 -3 -12 -4 -19 -1 -8 3 -5 6 6 6 11
1 17 -2 13 -5z m40 0 c-3 -3 -12 -4 -19 -1 -8 3 -5 6 6 6 11 1 17 -2 13 -5z
m46 -1 c-7 -2 -19 -2 -25 0 -7 3 -2 5 12 5 14 0 19 -2 13 -5z m105 0 c-10 -2
-26 -2 -35 0 -10 3 -2 5 17 5 19 0 27 -2 18 -5z m-1225 -34 c6 -23 -9 -16 -23
11 -8 16 -7 18 4 14 8 -3 16 -14 19 -25z m-1926 -141 c-2 -29 -3 -6 -3 52 0
58 1 81 3 53 2 -29 2 -77 0 -105z m2611 102 c-11 -18 -28 -27 -28 -16 0 16 14
36 26 36 12 0 12 -4 2 -20z m-57 -13 c-10 -9 -11 -8 -5 6 3 10 9 15 12 12 3
-3 0 -11 -7 -18z m909 -7 c147 -11 202 -17 390 -45 148 -22 172 -30 244 -80
110 -77 204 -197 261 -335 48 -113 60 -186 60 -350 0 -125 -4 -160 -29 -255
-15 -60 -45 -147 -66 -191 -84 -175 -196 -224 -498 -218 -118 2 -292 12 -347
19 -16 3 -77 9 -135 15 -320 33 -557 96 -613 163 -22 27 -59 105 -80 172 -58
182 -67 516 -23 845 19 139 30 179 57 215 29 36 60 48 149 55 101 9 452 4 630
-10z m-937 -15 c-3 -9 -8 -14 -10 -11 -3 3 -2 9 2 15 9 16 15 13 8 -4z m44
-17 c-3 -8 -6 -5 -6 6 -1 11 2 17 5 13 3 -3 4 -12 1 -19z m-5 -30 c-12 -15
-41 -151 -43 -200 -1 -25 -3 -28 -6 -9 -9 45 30 221 49 221 7 0 7 -4 0 -12z
m1843 2 c3 -6 -1 -7 -9 -4 -18 7 -21 14 -7 14 6 0 13 -4 16 -10z m42 -16 c-3
-3 -12 -4 -19 -1 -8 3 -5 6 6 6 11 1 17 -2 13 -5z m-2858 -47 c113 -75 106
-238 -12 -298 -33 -17 -53 -20 -104 -16 -125 10 -186 98 -153 219 33 116 166
163 269 95z m2739 -2 c155 -37 175 -67 167 -243 -5 -120 -17 -159 -30 -101
-19 87 -158 319 -200 336 -15 5 -21 23 -7 23 4 0 35 -7 70 -15z m-4441 -17
c-3 -8 -6 -5 -6 6 -1 11 2 17 5 13 3 -3 4 -12 1 -19z m2080 -50 c-2 -13 -4 -3
-4 22 0 25 2 35 4 23 2 -13 2 -33 0 -45z m126 55 c-7 -2 -21 -2 -30 0 -10 3
-4 5 12 5 17 0 24 -2 18 -5z m170 0 c-13 -2 -35 -2 -50 0 -16 2 -5 4 22 4 28
0 40 -2 28 -4z m-2266 -60 c-3 -10 -5 -2 -5 17 0 19 2 27 5 18 2 -10 2 -26 0
-35z m2003 -192 c-12 -116 -30 -241 -41 -278 -10 -37 -17 -54 -14 -38 3 17 14
113 25 215 20 194 42 340 48 321 2 -6 -6 -105 -18 -220z m2570 135 c0 -52 -6
-43 -13 18 -3 30 -1 43 4 35 5 -8 9 -32 9 -53z m-2113 -18 c-2 -13 -4 -3 -4
22 0 25 2 35 4 23 2 -13 2 -33 0 -45z m2332 43 c9 -6 11 -15 6 -27 -8 -18 -8
-18 -12 -1 -3 9 -9 17 -14 17 -5 0 -9 5 -9 10 0 12 10 13 29 1z m-2822 -53
c-2 -13 -4 -5 -4 17 -1 22 1 32 4 23 2 -10 2 -28 0 -40z m395 29 c16 -3 18
-22 23 -178 12 -341 24 -447 77 -649 32 -121 101 -255 167 -321 54 -53 147
-110 216 -131 68 -20 269 -60 395 -78 275 -38 340 -43 575 -44 278 -1 347 10
476 76 94 47 148 104 201 210 33 66 98 233 111 283 2 11 15 56 27 100 30 109
30 111 40 190 13 109 32 209 43 222 12 16 49 8 177 -38 162 -57 160 -57 154
-74 -3 -8 -13 -15 -21 -15 -12 0 -14 -8 -9 -37 l7 -38 -24 29 -24 30 -8 -30
c-7 -28 -7 -28 -16 -6 -4 12 -13 22 -20 22 -6 0 -9 -7 -5 -15 4 -12 -3 -15
-29 -15 -19 0 -38 0 -41 1 -4 0 -10 -4 -14 -10 -3 -6 -29 -13 -56 -16 -97 -10
-101 -12 -107 -58 -3 -23 -4 -54 -2 -69 2 -20 -1 -25 -11 -21 -10 4 -14 -4
-14 -30 0 -20 -4 -38 -9 -42 -6 -3 -9 -13 -9 -23 1 -9 -2 -27 -6 -39 -4 -14
-3 -23 3 -23 5 0 14 19 19 43 l10 42 2 -45 c2 -42 3 -43 10 -15 8 30 8 30 9 4
1 -20 8 -29 25 -33 27 -7 70 6 81 24 4 6 19 10 34 8 16 -1 35 5 45 14 9 10 24
14 33 11 13 -5 15 -2 10 11 -4 11 -3 15 4 11 6 -4 17 1 24 11 9 11 14 14 15 7
0 -18 20 -16 20 2 0 8 5 15 10 15 6 0 10 -7 10 -15 0 -8 5 -15 10 -15 6 0 10
9 10 20 0 20 16 26 35 12 15 -10 88 -152 82 -158 -3 -3 -20 9 -38 26 -42 38
-49 21 -19 -45 23 -51 23 -77 -1 -53 -8 8 -21 15 -29 15 -8 0 -23 4 -32 8 -13
5 -18 2 -18 -9 0 -9 -4 -16 -10 -16 -18 0 2 -65 42 -133 22 -38 38 -71 35 -74
-3 -2 -19 10 -36 28 -46 48 -38 22 22 -67 74 -111 73 -108 56 -102 -12 5 -14
-2 -11 -31 2 -28 1 -33 -7 -21 -10 13 -14 12 -29 -8 -21 -27 -32 -20 -32 23 0
37 -23 113 -51 168 -10 22 -19 45 -19 52 0 13 -65 75 -79 75 -11 0 -2 -85 15
-132 8 -22 14 -53 14 -69 l0 -29 -31 30 c-17 16 -35 27 -40 25 -4 -3 -10 -1
-14 5 -13 22 -23 8 -15 -22 7 -34 38 -91 76 -143 12 -16 25 -41 29 -55 l7 -25
-23 21 c-13 12 -39 36 -58 53 -19 17 -37 28 -40 25 -3 -3 5 -13 18 -23 15 -12
21 -23 16 -31 -6 -9 -4 -11 5 -5 10 6 12 4 7 -9 -4 -11 9 -41 40 -86 73 -110
46 -89 -41 31 -81 114 -185 229 -206 229 -8 0 -9 -6 -5 -17 4 -10 11 -34 15
-53 4 -19 27 -78 52 -130 57 -120 92 -226 83 -248 -6 -14 -8 -15 -12 -2 -39
117 -171 303 -197 277 -16 -16 -12 -119 9 -213 14 -62 16 -177 3 -189 -2 -2
-12 27 -21 64 -25 97 -86 211 -127 239 -18 12 -37 22 -41 22 -11 0 -12 -33 -1
-45 5 -6 19 -48 32 -95 13 -47 27 -90 32 -97 6 -7 7 -16 4 -21 -3 -5 -35 20
-72 55 -36 35 -71 63 -76 63 -5 0 -23 9 -39 21 -17 12 -39 19 -49 16 -11 -3
-20 -1 -20 4 0 5 -4 9 -10 9 -5 0 -10 -9 -10 -21 0 -11 -4 -17 -10 -14 -6 4
-8 15 -5 25 4 12 -1 19 -15 23 -42 11 -82 -15 -45 -30 9 -3 29 -17 44 -32 16
-14 48 -40 72 -58 53 -38 127 -110 142 -138 11 -22 15 -24 -73 43 -40 30 -69
37 -42 10 18 -18 14 -32 -5 -17 -13 11 -12 5 5 -25 26 -45 22 -62 -4 -19 -32
50 -162 173 -177 167 -8 -3 -17 2 -21 11 -3 10 -13 15 -20 12 -8 -3 -17 1 -20
8 -3 8 -11 12 -19 9 -8 -3 -19 2 -26 10 -7 8 -18 13 -26 10 -7 -3 -16 -1 -20
5 -3 6 -17 11 -31 11 -13 0 -24 5 -24 11 0 6 -8 8 -19 4 -11 -3 -22 -1 -26 5
-3 5 -14 10 -24 10 -10 0 -32 7 -47 15 -16 8 -37 12 -46 9 -10 -3 -18 0 -18 6
0 7 -7 10 -15 6 -8 -3 -15 -1 -15 4 0 6 -12 10 -27 9 -26 0 -27 -1 -9 -12 45
-28 155 -124 214 -186 79 -83 182 -238 182 -273 0 -17 -19 3 -35 35 -23 50
-119 143 -209 203 -87 58 -126 71 -86 29 40 -43 8 -27 -40 19 -122 119 -272
226 -335 241 l-30 7 27 -21 c36 -28 158 -215 129 -197 -22 14 -116 119 -113
128 1 4 -9 13 -24 18 -14 6 -40 21 -57 34 -33 24 -124 70 -142 72 -5 0 -18 4
-28 9 -10 4 -20 5 -23 3 -5 -5 20 -30 131 -132 81 -74 44 -72 -60 4 -105 77
-282 173 -291 159 -2 -5 -14 1 -24 11 -11 11 -29 20 -40 20 -11 0 -20 5 -20
11 0 5 -5 7 -10 4 -6 -4 -19 -3 -28 1 -9 4 -19 8 -22 9 -3 1 -18 7 -33 13 -44
19 -112 15 -151 -9 -20 -11 -41 -19 -48 -16 -7 2 -20 1 -28 -3 -23 -12 -115
-22 -225 -25 -205 -4 -356 72 -431 217 -25 46 -28 65 -29 143 0 129 30 183
180 330 l112 110 18 80 c9 44 21 87 25 95 9 16 40 184 61 329 l12 84 101 -7
c56 -4 109 -8 118 -9z m2613 -46 c364 -175 535 -261 535 -270 0 -6 -2 -11 -4
-11 -5 0 -134 61 -421 200 -93 45 -174 82 -180 83 -5 1 -14 -13 -19 -30 -11
-35 -26 -44 -26 -15 0 33 13 93 19 89 3 -1 47 -22 96 -46z m-2458 -83 c-4 -46
-7 -123 -7 -171 0 -49 -3 -86 -7 -84 -5 3 -8 36 -7 74 2 224 4 263 15 263 9 0
10 -23 6 -82z m-2376 42 c5 0 9 -9 9 -20 0 -22 -20 -26 -38 -8 -18 18 -15 41
4 34 9 -3 20 -6 25 -6z m-265 -32 c7 -8 21 -128 29 -247 l6 -83 -28 8 c-78 22
-182 -1 -252 -56 -100 -79 -143 -178 -145 -330 -1 -89 16 -202 29 -189 1 2 5
27 6 54 4 47 12 64 33 65 4 0 6 -7 3 -14 -4 -10 -1 -13 10 -9 8 3 19 0 24 -8
7 -11 9 -11 9 -1 0 9 12 12 40 9 23 -2 37 0 33 6 -3 5 3 6 15 3 13 -4 22 -1
25 9 5 12 11 13 31 3 l25 -11 -22 -29 c-36 -49 -127 -217 -127 -236 0 -5 -13
-35 -29 -68 -15 -32 -37 -92 -47 -131 -10 -40 -22 -73 -26 -73 -13 0 -102 95
-118 126 -8 16 -17 31 -20 34 -5 5 -25 46 -39 83 -5 12 -14 35 -20 50 -13 32
-30 103 -38 162 -12 77 -5 286 10 301 3 3 3 11 1 18 -3 7 1 26 7 42 7 16 11
33 10 38 -2 8 88 196 99 206 3 3 21 25 40 50 19 25 38 47 42 48 4 2 8 10 8 18
0 8 3 14 8 14 4 0 21 12 37 28 39 34 56 45 124 77 66 32 188 51 207 33z m2081
-25 c-3 -10 -5 -4 -5 12 0 17 2 24 5 18 2 -7 2 -21 0 -30z m-1950 5 c-3 -8 -6
-5 -6 6 -1 11 2 17 5 13 3 -3 4 -12 1 -19z m4860 -10 c-3 -7 -5 -2 -5 12 0 14
2 19 5 13 2 -7 2 -19 0 -25z m-298 -40 c1 -5 -3 -8 -9 -8 -5 0 -10 12 -9 28 0
24 1 25 9 7 5 -11 9 -23 9 -27z m-2609 -8 c0 -5 -5 -10 -11 -10 -5 0 -7 5 -4
10 3 6 8 10 11 10 2 0 4 -4 4 -10z m-1943 -67 c-3 -10 -5 -4 -5 12 0 17 2 24
5 18 2 -7 2 -21 0 -30z m1929 1 c-19 -19 -21 -11 -4 16 7 11 14 16 16 10 2 -5
-4 -17 -12 -26z m4156 20 c7 -5 23 -10 36 -12 12 -1 43 -14 68 -27 26 -14 50
-22 55 -19 5 3 9 -2 9 -10 0 -9 7 -16 15 -16 9 0 18 -7 21 -15 4 -8 12 -15 20
-15 8 0 14 -4 14 -10 0 -5 6 -10 13 -10 7 0 27 -17 43 -37 16 -20 35 -42 42
-49 6 -7 12 -17 12 -22 0 -6 6 -12 13 -15 11 -4 68 -109 101 -187 6 -14 14
-27 18 -30 4 -3 8 -21 10 -39 1 -18 6 -35 11 -38 4 -2 3 -11 -3 -18 -8 -9 -6
-14 6 -19 13 -5 14 -9 4 -21 -9 -11 -10 -15 -1 -15 8 0 10 -8 6 -20 -3 -11 -2
-20 2 -20 25 0 19 -362 -7 -410 -6 -11 -9 -23 -8 -27 3 -11 -10 -48 -34 -103
-11 -24 -21 -49 -23 -55 -8 -40 -18 -65 -26 -65 -5 0 -9 -7 -9 -15 0 -29 -173
-235 -197 -235 -6 0 -18 -11 -27 -25 -10 -14 -28 -30 -42 -35 -13 -5 -24 -14
-24 -20 0 -5 -9 -10 -20 -10 -11 0 -20 -4 -20 -9 0 -9 -53 -34 -75 -35 -5 -1
-12 -4 -15 -7 -3 -3 -34 -14 -70 -24 -50 -15 -99 -19 -215 -20 -82 0 -159 4
-170 9 -11 5 -27 8 -36 7 -13 -1 -16 17 -17 131 -2 139 -12 329 -18 339 -2 3
-6 32 -9 65 -3 32 -12 88 -21 124 -8 36 -17 80 -20 98 -3 19 -16 63 -30 98
-28 74 -30 94 -9 94 22 0 27 52 19 200 -12 234 -13 231 49 358 11 23 24 42 29
42 4 0 8 7 8 15 0 9 7 18 15 21 8 4 15 12 15 20 0 8 6 14 14 14 8 0 16 7 20
15 3 8 12 15 20 15 7 0 16 7 20 15 3 8 12 15 21 15 8 0 15 5 15 10 0 6 6 10
13 10 6 0 26 7 42 16 61 32 128 44 222 40 50 -2 97 -8 105 -12z m-1562 -71
c-11 -17 -11 -17 -6 0 3 10 7 26 7 35 1 15 2 15 6 0 2 -10 -1 -25 -7 -35z
m-4513 -20 c-3 -10 -5 -2 -5 17 0 19 2 27 5 18 2 -10 2 -26 0 -35z m10 -55
c-3 -7 -5 -2 -5 12 0 14 2 19 5 13 2 -7 2 -19 0 -25z m4490 -15 c-3 -10 -5 -2
-5 17 0 19 2 27 5 18 2 -10 2 -26 0 -35z m-2019 -75 l-2 -83 -5 75 c-3 41 -5
78 -3 83 9 21 12 -1 10 -75z m-2458 27 c0 -14 -2 -25 -4 -25 -2 0 -6 11 -8 25
-3 14 -1 25 3 25 5 0 9 -11 9 -25z m4467 -27 c-3 -8 -6 -5 -6 6 -1 11 2 17 5
13 3 -3 4 -12 1 -19z m-2600 -28 c-3 -12 -1 -18 5 -14 6 4 8 -2 3 -17 -9 -32
-33 -69 -44 -69 -11 0 -2 38 10 46 5 3 9 21 9 40 0 19 5 34 11 34 6 0 9 -9 6
-20z m3143 -15 c0 -8 -2 -15 -4 -15 -2 0 -6 7 -10 15 -3 8 -1 15 4 15 6 0 10
-7 10 -15z m-225 -63 c-3 -3 -11 0 -18 7 -9 10 -8 11 6 5 10 -3 15 -9 12 -12z
m-4748 -44 c-3 -8 -6 -5 -6 6 -1 11 2 17 5 13 3 -3 4 -12 1 -19z m-407 2 c0
-5 -5 -10 -11 -10 -5 0 -7 5 -4 10 3 6 8 10 11 10 2 0 4 -4 4 -10z m5435 -58
c-8 -8 -25 10 -25 26 0 13 2 13 14 -4 8 -10 13 -21 11 -22z m-2587 -126 c14
-46 17 -65 8 -55 -11 12 -57 166 -55 187 0 10 23 -52 47 -132z m-1 112 c-3 -8
-6 -5 -6 6 -1 11 2 17 5 13 3 -3 4 -12 1 -19z m-2663 -43 c-10 -8 -57 -33
-104 -56 -47 -24 -87 -44 -89 -46 -2 -1 3 -11 12 -21 15 -17 15 -19 -13 -36
-33 -19 -38 -16 -14 9 13 13 14 18 3 31 -15 19 7 36 101 78 36 16 76 37 89 48
13 10 26 16 29 13 3 -3 -3 -12 -14 -20z m-304 -85 c0 -5 -5 -10 -11 -10 -5 0
-7 5 -4 10 3 6 8 10 11 10 2 0 4 -4 4 -10z m590 -30 c6 -11 8 -20 6 -20 -3 0
-10 9 -16 20 -6 11 -8 20 -6 20 3 0 10 -9 16 -20z m-500 -19 c0 -12 -20 -25
-27 -18 -7 7 6 27 18 27 5 0 9 -4 9 -9z m566 -26 c9 -8 11 -15 6 -15 -5 0 -15
7 -22 15 -7 8 -9 15 -6 15 4 0 14 -7 22 -15z m-3 -21 c9 -4 17 -10 17 -15 0
-5 9 -9 19 -9 11 0 22 -4 26 -9 3 -6 45 -22 93 -37 140 -42 144 -45 70 -39
-63 5 -122 23 -141 42 -5 4 -12 9 -15 9 -26 5 -52 18 -52 24 0 5 -15 18 -32
30 -18 12 -26 19 -18 16 8 -3 23 -9 33 -12z m23 -126 c52 -35 223 -98 266 -98
10 0 18 -3 18 -7 0 -5 10 -9 23 -9 88 -5 105 -11 80 -30 -26 -19 -7 -17 23 3
22 14 27 14 35 2 7 -11 9 -11 9 0 0 9 6 11 18 6 23 -11 57 -14 197 -20 66 -3
149 -8 185 -11 36 -3 70 -6 75 -5 6 0 72 2 148 5 77 2 156 8 178 11 32 6 39 4
39 -9 0 -9 7 -16 15 -16 17 0 20 16 5 25 -18 11 0 25 31 25 16 0 29 4 29 9 0
5 9 11 19 14 15 4 22 -2 30 -26 6 -16 11 -36 11 -43 0 -23 -42 -42 -114 -54
-132 -21 -241 -77 -356 -181 -66 -59 -100 -83 -100 -68 0 7 10 23 22 36 22 23
12 33 -10 11 -8 -8 -12 -9 -12 -1 0 6 -7 13 -16 15 -13 2 -11 8 10 31 14 15
26 32 26 38 0 5 7 9 15 9 8 0 15 5 15 10 0 6 -4 10 -8 10 -12 0 -141 -65 -179
-90 -18 -12 -33 -17 -33 -12 0 6 53 43 117 83 64 40 112 74 106 76 -43 15
-297 -117 -356 -184 -47 -54 -43 -31 7 35 25 33 66 73 91 89 53 33 70 59 27
41 -59 -25 -137 -95 -244 -218 -61 -71 -114 -128 -115 -126 -6 6 54 103 128
207 38 54 69 101 69 104 0 3 -19 -4 -41 -17 -56 -31 -176 -161 -245 -264 -31
-46 -57 -84 -59 -84 -2 0 3 24 10 53 l14 52 -29 -35 c-28 -33 -29 -34 -30 -11
0 29 57 133 100 180 16 18 30 39 30 46 0 7 10 20 23 29 12 8 35 26 50 39 l28
24 -61 2 c-55 2 -62 0 -67 -19 -4 -15 -9 -18 -18 -10 -24 20 -207 -69 -237
-114 -4 -6 -10 -7 -14 -4 -3 4 37 50 90 102 53 52 96 99 96 106 0 6 -5 8 -12
4 -6 -4 -25 -8 -42 -9 -41 -1 -114 -37 -165 -82 -23 -19 -44 -33 -47 -30 -7 7
28 50 105 125 35 34 62 65 59 68 -3 2 -17 0 -32 -6 -15 -5 -31 -8 -36 -5 -20
12 -115 -32 -200 -92 l-24 -18 19 34 c11 18 49 60 84 92 52 48 61 61 52 73
-13 16 -49 18 -68 4 -7 -5 -14 -4 -18 2 -5 8 -13 6 -26 -6 -33 -30 -32 -8 1
30 17 19 29 40 25 45 -3 6 -1 21 6 33 7 12 11 40 11 61 l-2 39 45 -44 c25 -23
71 -60 101 -80z m2349 93 c3 -11 12 -22 20 -25 8 -3 15 -12 15 -21 0 -25 97
-112 145 -131 49 -18 62 -38 18 -28 -32 8 -113 63 -113 76 0 5 -4 7 -9 4 -5
-4 -23 11 -40 33 -31 39 -39 57 -21 46 6 -3 10 -2 10 3 0 5 -8 12 -18 15 -11
2 -21 14 -25 26 -6 26 9 28 18 2z m2440 -21 c3 -5 2 -10 -4 -10 -5 0 -13 5
-16 10 -3 6 -2 10 4 10 5 0 13 -4 16 -10z m19 -36 c5 -14 4 -15 -9 -4 -17 14
-19 20 -6 20 5 0 12 -7 15 -16z m-4519 -34 c-3 -5 -12 -10 -18 -10 -7 0 -6 4
3 10 19 12 23 12 15 0z m1095 0 c0 -5 -5 -10 -11 -10 -5 0 -7 5 -4 10 3 6 8
10 11 10 2 0 4 -4 4 -10z m-1043 -6 c-3 -3 -12 -4 -19 -1 -8 3 -5 6 6 6 11 1
17 -2 13 -5z m97 -23 c4 -5 -3 -7 -14 -4 -23 6 -26 13 -6 13 8 0 17 -4 20 -9z
m196 -11 c55 -8 49 -8 -44 -4 -60 3 -116 9 -125 14 -17 10 55 6 169 -10z m243
-17 c-29 -2 -77 -2 -105 0 -29 2 -6 3 52 3 58 0 81 -1 53 -3z m1773 -72 c5 -5
56 -17 114 -26 106 -16 139 -22 175 -30 11 -2 76 -11 145 -20 68 -9 127 -19
130 -22 3 -3 -17 -3 -45 1 -27 3 -79 8 -115 11 -152 14 -470 76 -470 91 0 8
56 4 66 -5z m1384 -21 c0 -5 -5 -10 -11 -10 -5 0 -7 5 -4 10 3 6 8 10 11 10 2
0 4 -4 4 -10z m-94 -59 c-4 -5 -29 -14 -57 -20 -59 -13 -113 -13 -59 0 19 4
51 12 70 17 47 13 52 14 46 3z m-633 -28 c-7 -2 -19 -2 -25 0 -7 3 -2 5 12 5
14 0 19 -2 13 -5z m187 -3 c0 -5 -12 -10 -27 -9 l-28 1 25 8 c14 4 26 8 28 9
1 1 2 -3 2 -9z m280 0 c0 -6 -28 -9 -67 -8 l-68 1 65 7 c36 4 66 7 68 8 1 1 2
-2 2 -8z m-212 -7 c-10 -2 -26 -2 -35 0 -10 3 -2 5 17 5 19 0 27 -2 18 -5z
m-2180 -20 c9 -4 25 -7 34 -7 10 -1 17 -5 17 -11 0 -5 -11 -9 -25 -8 -13 1
-24 -2 -24 -7 0 -12 46 -24 59 -15 7 4 11 -8 11 -31 0 -27 -8 -46 -27 -67 -29
-32 -18 -29 32 8 70 51 151 75 95 28 -144 -121 -187 -142 -183 -90 3 38 -17
35 -72 -13 -25 -22 -48 -40 -51 -40 -13 0 25 51 74 98 30 29 52 56 48 59 -6 6
-106 -55 -118 -71 -4 -6 -10 -8 -13 -4 -3 3 8 18 26 32 17 15 29 30 25 33 -3
4 -12 1 -18 -5 -7 -7 -17 -12 -23 -12 -5 0 -1 7 9 15 11 8 17 18 13 21 -4 4
-13 2 -20 -5 -8 -6 -22 -8 -32 -5 -13 5 -14 9 -3 16 8 5 2 6 -17 2 -38 -8
-112 -49 -147 -82 -22 -20 -28 -22 -28 -10 0 44 188 167 263 173 21 1 40 5 43
8 6 6 18 3 52 -10z m3516 -18 c3 -8 1 -15 -4 -15 -6 0 -10 7 -10 15 0 8 2 15
4 15 2 0 6 -7 10 -15z m-2634 -45 c0 -5 -4 -10 -10 -10 -5 0 -10 5 -10 10 0 6
5 10 10 10 6 0 10 -4 10 -10z m144 -44 c38 -20 72 -34 74 -31 3 3 -5 19 -18
37 l-23 31 38 -6 c41 -7 135 -52 171 -82 7 -5 27 -21 46 -35 55 -42 162 -149
155 -156 -4 -4 -15 0 -25 9 -29 27 -196 136 -201 132 -2 -3 2 -12 10 -21 13
-16 12 -17 -8 -12 -13 4 -23 4 -23 1 0 -2 21 -24 47 -49 65 -60 35 -56 -52 6
-145 103 -175 123 -182 116 -4 -4 -1 -21 7 -39 8 -18 15 -60 15 -95 l2 -63
-32 31 c-35 34 -160 238 -151 247 3 3 13 0 22 -8 15 -12 16 -12 10 8 -5 16 -2
22 11 25 10 3 23 1 28 -3 6 -4 41 -23 79 -43z m-174 -26 c83 -234 82 -236 -36
-74 -12 16 -25 26 -29 22 -5 -5 -1 -16 8 -26 13 -14 15 -25 8 -49 -6 -22 -5
-37 4 -50 7 -10 15 -29 19 -43 7 -24 6 -24 -19 5 -33 36 -82 138 -90 183 l-5
33 29 -16 c38 -19 41 -19 41 5 0 13 7 20 20 20 11 0 19 3 19 8 -8 46 12 35 31
-18z m-590 -10 c14 -11 33 -20 43 -20 9 0 17 -3 17 -6 0 -6 -61 -95 -71 -104
-3 -3 -9 -14 -12 -24 -4 -10 -10 -16 -13 -13 -3 3 6 31 20 63 14 31 26 61 26
68 0 6 -32 -22 -70 -61 -39 -40 -77 -73 -86 -73 -9 0 -12 -5 -8 -12 5 -9 2 -8
-9 1 -10 8 -19 12 -21 10 -1 -2 -10 -15 -19 -29 -27 -39 -20 -6 14 63 34 73
112 157 143 157 12 0 32 -9 46 -20z m400 -1 c0 -5 -4 -9 -10 -9 -5 0 -10 7
-10 16 0 8 5 12 10 9 6 -3 10 -10 10 -16z m2305 11 c3 -5 1 -10 -4 -10 -6 0
-11 5 -11 10 0 6 2 10 4 10 3 0 8 -4 11 -10z m-2269 -119 c21 -80 19 -116 -3
-63 -38 95 -51 156 -32 150 8 -3 23 -41 35 -87z m-614 -113 c-7 -7 -12 -8 -12
-2 0 6 3 14 7 17 3 4 9 5 12 2 2 -3 -1 -11 -7 -17z m2258 -35 c28 -12 127 -92
171 -138 44 -46 119 -159 119 -179 -1 -12 -50 44 -50 57 0 14 -65 66 -77 62
-8 -2 -13 4 -13 15 0 10 -5 22 -11 26 -9 5 -10 -1 -5 -20 4 -16 3 -33 -2 -39
-6 -7 -11 -20 -13 -30 -3 -12 -20 11 -49 67 -25 48 -64 112 -87 143 -48 64
-54 84 -20 59 12 -9 29 -19 37 -23z m-2292 -4 c-19 -13 -28 -11 -28 5 0 9 7
12 21 9 16 -4 17 -8 7 -14z m-1258 -23 c0 -3 -4 -8 -10 -11 -5 -3 -10 -1 -10
4 0 6 5 11 10 11 6 0 10 -2 10 -4z m3314 -42 c3 -8 2 -12 -4 -9 -6 3 -10 10
-10 16 0 14 7 11 14 -7z m-3008 -88 c-15 -13 -39 -37 -53 -52 -14 -17 -20 -21
-14 -9 5 11 19 29 30 40 12 11 27 25 34 32 6 7 17 12 22 12 6 0 -3 -10 -19
-23z m3674 -6 c0 -5 -2 -10 -4 -10 -3 0 -8 5 -11 10 -3 6 -1 10 4 10 6 0 11
-4 11 -10z m-3555 -113 c-4 -14 -14 -33 -24 -44 -10 -10 -23 -27 -30 -38 -11
-19 -12 -19 -6 3 7 25 58 112 63 107 2 -1 0 -14 -3 -28z m335 14 c0 -3 13 -6
29 -7 16 -1 37 -5 47 -9 11 -4 28 -9 39 -10 11 -2 61 -11 110 -20 50 -9 107
-19 128 -22 40 -6 46 -26 9 -31 -12 -2 -44 -28 -71 -58 -44 -48 -54 -68 -86
-169 -19 -63 -39 -134 -44 -157 -5 -24 -12 -51 -16 -60 -4 -11 -3 -18 4 -18 8
0 9 -5 1 -19 -13 -26 -14 -52 0 -31 7 11 8 5 4 -20 -4 -19 -8 -37 -10 -39 -13
-15 -19 29 -22 160 -3 132 0 161 23 255 14 59 34 126 45 150 28 64 7 56 -72
-28 -44 -47 -82 -100 -104 -146 -20 -40 -38 -72 -40 -69 -9 9 37 161 70 227
40 80 43 92 22 84 -15 -6 -136 -140 -169 -189 -25 -35 -30 -27 -18 26 5 24 12
58 15 76 5 31 5 31 -20 18 -14 -7 -39 -28 -55 -47 -27 -31 -28 -31 -16 -6 7
16 15 28 19 28 4 0 5 6 2 13 -4 13 7 31 60 93 25 30 33 34 72 32 24 0 44 -4
44 -7z m-540 -5 c0 -2 -8 -10 -17 -17 -16 -13 -17 -12 -4 4 13 16 21 21 21 13z
m1469 -131 c55 -116 101 -266 100 -326 0 -30 -2 -49 -4 -44 -1 6 -8 29 -15 52
-13 42 -36 51 -25 10 5 -21 4 -21 -7 1 -7 14 -17 21 -26 17 -8 -3 -30 -1 -49
6 -28 9 -33 15 -33 40 0 18 4 28 10 24 6 -3 10 -1 10 4 0 18 39 12 57 -9 10
-11 21 -20 25 -20 5 0 -4 14 -19 30 -53 60 -93 31 -93 -68 -1 -56 -3 -64 -12
-47 -7 11 -14 86 -17 175 l-6 155 -12 -70 c-7 -38 -17 -122 -23 -185 -6 -63
-15 -142 -19 -175 -8 -54 -9 -56 -10 -17 -1 40 -20 61 -22 25 0 -10 -7 18 -15
62 -22 119 -3 233 62 373 21 45 81 86 100 68 5 -6 25 -42 43 -81z m155 76 c19
-11 37 -17 40 -14 3 3 11 2 18 -4 23 -17 113 -39 200 -49 29 -3 60 -9 68 -13
8 -4 80 -9 160 -10 142 -3 146 -3 173 -29 103 -98 187 -263 192 -377 1 -22 5
-53 9 -70 7 -29 7 -29 -12 5 -73 137 -128 214 -195 278 -79 74 -91 68 -43 -23
16 -31 22 -75 9 -75 -11 0 -53 43 -53 55 0 6 -7 20 -15 31 -15 18 -16 18 -13
-6 2 -20 -1 -25 -18 -24 -15 0 -20 -4 -16 -14 4 -12 1 -12 -19 -3 -21 11 -22
11 -6 -2 9 -8 27 -12 40 -10 16 3 25 -3 34 -23 15 -32 7 -47 -11 -21 -12 15
-36 24 -36 12 0 -2 9 -20 20 -40 11 -19 16 -35 11 -35 -12 0 -38 26 -52 53
-11 19 -161 206 -218 270 -42 47 -34 23 19 -57 28 -43 54 -85 57 -94 5 -17
-59 48 -87 87 -8 12 -19 21 -24 21 -5 0 -2 -8 6 -17 25 -29 38 -61 32 -77 -3
-9 -10 -13 -15 -10 -12 7 -12 11 15 -108 29 -124 38 -185 27 -172 -4 5 -36 74
-71 154 -80 184 -122 268 -127 253 -2 -7 0 -20 5 -30 6 -10 13 -49 16 -88 6
-64 6 -68 -7 -40 -7 17 -26 68 -42 115 -16 47 -37 97 -47 112 -10 14 -18 33
-18 41 0 8 -14 27 -31 41 -36 31 -24 34 25 7z m-368 -34 c-46 -110 -80 -177
-88 -177 -5 0 -8 -8 -6 -17 2 -11 -3 -18 -12 -18 -8 0 -16 10 -18 23 -2 12 -7
22 -12 22 -16 0 -71 -73 -106 -140 -19 -36 -34 -60 -34 -54 0 25 71 241 90
274 5 8 19 33 31 55 26 50 34 55 84 55 22 0 47 4 55 9 24 16 31 2 16 -32z
m339 7 c9 -14 23 -64 30 -110 8 -47 17 -89 21 -95 3 -6 8 -43 9 -82 2 -40 6
-81 10 -92 7 -16 4 -16 -14 5 -42 46 -77 172 -86 308 -6 97 0 111 30 66z
m1249 13 c14 -13 36 -52 36 -61 0 -19 -23 0 -40 34 -21 40 -19 51 4 27z
m-1744 -7 c0 -3 -13 -19 -30 -37 -39 -41 -85 -120 -117 -200 -26 -64 -49 -97
-33 -46 20 64 19 89 -1 101 -17 11 -25 9 -54 -14 -23 -17 -35 -22 -35 -13 1
23 36 93 54 108 10 8 28 35 41 60 l23 46 76 0 c42 1 76 -2 76 -5z m2544 -30
c10 -13 9 -13 -6 -1 -10 7 -18 21 -17 30 0 13 1 14 6 1 3 -8 11 -22 17 -30z
m-524 -18 c36 -54 37 -59 3 -32 -17 14 -28 31 -25 38 2 7 -1 12 -9 10 -7 -2
-15 5 -17 14 -6 28 20 12 48 -30z m-480 -9 c40 -49 88 -147 95 -198 l6 -40
-23 52 c-24 53 -42 80 -36 53 2 -9 -6 -16 -22 -18 -41 -6 -53 -22 -47 -67 l4
-42 -111 114 c-76 76 -119 113 -134 113 -49 0 -18 17 53 29 41 7 94 18 118 26
61 19 63 19 97 -22z m180 12 c7 -9 8 -15 2 -15 -5 0 -12 7 -16 15 -3 8 -4 15
-2 15 2 0 9 -7 16 -15z m-50 -28 c0 -7 8 -17 19 -24 19 -12 46 -73 32 -73 -10
0 -65 69 -74 93 -4 11 -1 17 8 17 8 0 15 -6 15 -13z m-416 -26 c40 -41 18 -46
-26 -5 -29 26 -33 34 -20 34 10 0 31 -13 46 -29z m500 13 c11 -28 6 -39 -9
-20 -8 11 -15 23 -15 28 0 14 18 9 24 -8z m-2027 -166 c-3 -8 -6 -5 -6 6 -1
11 2 17 5 13 3 -3 4 -12 1 -19z m1088 -8 c3 -5 1 -10 -4 -10 -6 0 -11 5 -11
10 0 6 2 10 4 10 3 0 8 -4 11 -10z m729 -76 c3 -8 2 -12 -4 -9 -6 3 -10 10
-10 16 0 14 7 11 14 -7z m31 -53 c-6 -5 -25 10 -25 20 0 5 6 4 14 -3 8 -7 12
-15 11 -17z m-430 1 c-3 -3 -11 0 -18 7 -9 10 -8 11 6 5 10 -3 15 -9 12 -12z
m1100 -1478 c-20 -76 -51 -193 -70 -259 -18 -66 -46 -169 -60 -230 -15 -60
-31 -114 -35 -120 -4 -5 -11 -25 -15 -44 -4 -19 -15 -48 -25 -65 -21 -37 -48
-38 -84 -1 -24 24 -53 35 -41 15 10 -17 -1 -11 -20 10 -18 20 -18 21 1 14 10
-4 2 5 -19 20 -21 14 -43 23 -49 20 -6 -4 -8 -3 -5 3 6 9 -21 39 -66 72 -15
12 -17 12 -10 -5 7 -19 -23 0 -100 63 -15 12 -58 39 -94 59 -64 36 -65 37 -96
20 -18 -9 -75 -48 -127 -86 -52 -39 -137 -100 -189 -136 -51 -37 -96 -75 -98
-85 -3 -10 -9 -17 -13 -14 -5 3 -11 1 -15 -5 -3 -5 -1 -10 4 -10 6 0 11 -4 11
-9 0 -5 -12 -5 -28 1 -33 13 -41 42 -9 32 15 -5 19 -3 14 9 -3 9 1 18 9 21 10
4 12 2 8 -6 -4 -7 -3 -8 4 -4 7 4 12 13 12 19 0 7 30 32 66 56 36 23 63 45 60
48 -2 3 -30 -11 -60 -31 -31 -20 -59 -36 -62 -36 -3 0 -23 -13 -44 -30 -21
-16 -41 -30 -44 -30 -4 0 -12 -5 -19 -10 -7 -6 -23 -19 -37 -29 -14 -11 -22
-22 -19 -25 3 -4 19 4 35 16 18 14 11 2 -18 -30 -27 -28 -48 -58 -48 -67 0 -9
-9 -15 -21 -15 -19 0 -21 4 -14 38 11 62 49 106 172 202 174 134 414 326 443
352 19 18 112 126 126 146 1 2 20 8 42 13 32 7 49 5 86 -11 25 -11 51 -26 58
-33 25 -23 106 -77 116 -77 6 0 12 -4 14 -8 2 -5 40 -39 86 -76 56 -46 82 -62
82 -50 0 9 12 51 27 94 l27 78 -64 66 c-63 66 -80 77 -80 54 1 -28 -55 -158
-67 -158 -20 0 -16 17 22 97 19 41 35 77 35 81 0 9 -109 77 -114 71 -2 -2 -16
-24 -31 -49 -16 -24 -34 -51 -42 -58 -7 -7 -13 -18 -13 -23 0 -5 -7 -9 -15 -9
-22 0 -20 6 30 76 25 34 45 67 45 73 0 16 33 30 110 46 91 19 99 19 94 -2 -3
-12 16 -39 52 -77 l56 -59 -11 -39 c-19 -62 -6 -55 18 9 12 32 35 92 52 134
16 41 29 82 29 90 0 20 71 56 78 39 1 -4 -14 -69 -33 -146z m-2466 117 c10 -7
14 -26 12 -65 -1 -40 2 -56 11 -56 8 -1 7 -4 -3 -10 -9 -5 -20 -21 -23 -35 -4
-14 -11 -25 -16 -25 -6 0 -10 -5 -10 -11 0 -5 5 -7 10 -4 6 3 10 1 10 -4 0
-13 -10 -14 -27 -3 -10 6 -10 26 -1 93 6 46 11 94 11 107 -1 24 4 27 26 13z
m131 -56 c0 -11 -46 -35 -66 -35 -8 0 -11 9 -9 20 2 12 -2 23 -10 27 -8 3 -13
8 -10 12 6 11 95 -12 95 -24z m2130 5 c0 -5 -4 -10 -10 -10 -5 0 -10 5 -10 10
0 6 5 10 10 10 6 0 10 -4 10 -10z m449 -26 c2 -2 -4 -11 -13 -20 -20 -19 -21
-18 -30 19 -6 27 -5 27 16 16 13 -6 25 -13 27 -15z m-2460 -17 c6 -8 8 -16 5
-20 -3 -3 -1 -15 6 -26 7 -14 7 -21 0 -21 -21 0 -9 -20 13 -21 22 0 22 0 -2
-10 -30 -12 -30 -12 -34 38 -2 23 -9 48 -16 57 -11 13 -11 16 2 16 8 0 20 -6
26 -13z m1241 -11 c0 -2 -7 -7 -16 -10 -8 -3 -12 -2 -9 4 6 10 25 14 25 6z
m-1111 -48 c7 -24 26 -55 42 -70 16 -15 29 -34 29 -42 0 -9 5 -16 10 -16 6 0
10 -7 10 -15 0 -8 4 -15 9 -15 16 0 7 35 -14 52 -18 16 -19 17 -2 18 38 0 98
-41 125 -86 15 -25 47 -73 70 -106 50 -68 50 -69 -76 25 -51 38 -96 67 -99 64
-15 -15 55 -85 145 -145 68 -45 146 -111 237 -201 136 -134 150 -156 105 -168
-11 -3 -18 -9 -15 -13 3 -5 -1 -34 -8 -67 l-14 -58 -89 1 c-167 3 -418 21
-544 39 -14 2 -64 6 -112 10 -47 4 -108 12 -135 19 l-48 13 118 56 c65 31 121
57 125 57 4 0 29 11 55 25 43 23 51 25 82 14 37 -14 86 -4 157 31 47 23 59 11
48 -48 -8 -48 -10 -46 66 -72 76 -26 78 -26 71 15 l-6 35 57 -31 c69 -37 66
-35 47 -43 -9 -3 -14 -2 -11 2 2 4 -6 12 -19 19 -19 8 -28 8 -42 -2 -17 -13
-15 -15 17 -28 68 -28 84 -31 77 -13 -3 8 -2 18 3 21 6 4 10 -3 10 -15 0 -16
32 -40 53 -40 5 0 0 67 -6 86 -4 11 -19 27 -32 34 -14 7 -25 17 -25 20 0 11
-65 80 -75 80 -5 0 -17 8 -27 17 -17 15 -21 15 -29 3 -8 -12 -9 -11 -7 5 2 16
-6 23 -41 34 -26 8 -38 16 -31 21 8 5 2 10 -15 14 -23 6 -98 56 -115 77 -3 4
-21 16 -40 28 -66 40 -113 25 -246 -75 -49 -37 -105 -81 -125 -98 -62 -53 -83
-71 -100 -81 -92 -57 -103 -53 -100 37 1 34 6 104 11 153 5 50 10 100 10 112
0 15 22 39 75 80 193 148 242 172 385 183 3 0 -1 4 -8 8 -7 5 -14 17 -16 28
-3 10 -7 27 -11 37 -5 11 -2 17 7 17 9 0 20 -18 27 -42z m2428 -20 c35 -34 63
-67 63 -73 0 -11 -72 -55 -89 -55 -6 0 -21 21 -33 48 -13 26 -32 60 -43 76
l-19 28 25 19 c13 10 26 19 29 19 2 0 33 -28 67 -62z m-927 42 c0 -5 -5 -10
-11 -10 -5 0 -7 5 -4 10 3 6 8 10 11 10 2 0 4 -4 4 -10z m-2064 -27 c-1 -20
-7 -28 -20 -27 -16 2 -16 1 0 -17 11 -12 13 -19 5 -19 -7 0 -9 -4 -6 -10 3 -6
-1 -7 -9 -4 -25 10 -19 -20 7 -31 21 -10 22 -14 19 -130 -9 -409 -8 -442 12
-464 11 -12 17 -23 14 -26 -6 -6 -176 22 -248 42 -30 8 -73 19 -95 23 -22 5
-58 15 -80 23 -51 19 -50 27 20 170 90 183 149 270 259 386 40 43 56 51 56 26
0 -8 4 -15 9 -15 15 0 23 18 11 25 -16 10 -12 23 17 50 15 14 29 25 30 25 1 0
1 -12 -1 -27z m1807 -28 c-15 -19 -32 -35 -37 -35 -5 0 -2 8 7 18 22 24 21 32
0 33 -10 1 -2 5 17 9 19 4 36 8 38 9 2 0 -10 -15 -25 -34z m1051 -88 c20 -33
33 -46 44 -42 12 5 13 3 2 -10 -11 -13 -9 -30 11 -101 29 -102 26 -102 158
-14 50 33 92 60 94 60 6 0 91 -152 138 -245 36 -70 66 -152 58 -158 -27 -20
-730 -156 -811 -157 -7 0 9 49 33 105 4 11 13 40 19 65 22 91 23 92 150 155
66 32 120 63 120 67 0 5 12 13 26 19 15 5 24 12 21 15 -3 3 -14 1 -25 -5 -29
-15 -29 -16 -35 32 -7 51 -34 117 -47 117 -6 0 -10 -4 -10 -10 0 -5 -15 -17
-32 -26 -18 -9 -37 -23 -41 -30 -4 -8 -13 -14 -19 -14 -12 0 -3 60 17 105 7
17 19 52 26 78 10 34 22 53 39 62 22 12 26 11 30 -3 3 -9 18 -39 34 -65z
m-2713 -39 c-1 -49 -7 -78 -17 -88 -13 -13 -14 -11 -9 15 6 28 10 75 14 134 0
13 4 21 8 18 3 -4 5 -39 4 -79z m139 42 c0 -5 -5 -10 -11 -10 -5 0 -7 5 -4 10
3 6 8 10 11 10 2 0 4 -4 4 -10z m1916 1 c-3 -5 1 -14 9 -21 28 -23 15 -31 -15
-9 -30 22 -31 39 -4 39 8 0 13 -4 10 -9z m-2034 -31 c3 -16 2 -34 -2 -40 -4
-6 -7 7 -8 30 -2 47 4 53 10 10z m772 14 c3 -8 2 -12 -4 -9 -6 3 -10 10 -10
16 0 14 7 11 14 -7z m971 -11 c-23 -35 -97 -105 -104 -98 -4 5 108 125 117
125 3 0 -4 -12 -13 -27z m1170 17 c3 -5 1 -10 -4 -10 -6 0 -11 5 -11 10 0 6 2
10 4 10 3 0 8 -4 11 -10z m-1382 -38 c-10 -10 -20 -17 -22 -16 -6 5 20 34 30
34 5 0 1 -8 -8 -18z m-746 -14 c-3 -8 -6 -5 -6 6 -1 11 2 17 5 13 3 -3 4 -12
1 -19z m1308 11 c11 -17 -1 -21 -15 -4 -8 9 -8 15 -2 15 6 0 14 -5 17 -11z
m-2045 -13 c0 -3 -15 -15 -32 -27 l-33 -23 24 27 c22 24 41 35 41 23z m2924
-36 c-6 -5 -24 21 -24 34 0 6 6 1 14 -10 8 -10 12 -21 10 -24z m-1484 -4 c0
-2 -7 -9 -15 -16 -13 -11 -14 -10 -9 4 5 14 24 23 24 12z m-650 -26 c0 -5 -2
-10 -4 -10 -3 0 -8 5 -11 10 -3 6 -1 10 4 10 6 0 11 -4 11 -10z m1355 -10 c10
-11 16 -20 13 -20 -3 0 -13 9 -23 20 -10 11 -16 20 -13 20 3 0 13 -9 23 -20z
m677 -32 c-6 -6 -13 2 -21 23 l-11 33 21 -23 c14 -15 18 -26 11 -33z m63 42
c-3 -5 -14 -10 -23 -10 -15 0 -15 2 -2 10 20 13 33 13 25 0z m-2073 -32 c8
-23 146 -37 313 -33 161 4 243 16 257 38 6 9 8 9 8 0 0 -27 -201 -235 -312
-322 -27 -21 -48 -27 -48 -13 0 4 -10 18 -22 32 -39 43 -138 169 -138 175 0 3
-18 30 -40 60 -22 30 -40 59 -40 65 0 14 17 13 22 -2z m1638 -193 c0 -8 -4
-15 -10 -15 -5 0 -7 7 -4 15 4 8 8 15 10 15 2 0 4 -7 4 -15z m-2119 -55 c1
-11 2 -27 3 -37 0 -9 -5 -18 -11 -20 -9 -3 -13 8 -13 36 0 41 19 59 21 21z
m1338 -27 c40 -28 54 -47 27 -37 -8 3 -17 0 -21 -7 -6 -9 1 -10 29 -5 23 4 36
3 36 -4 0 -5 10 -10 23 -11 25 -1 43 -11 149 -85 40 -28 95 -63 121 -77 73
-38 64 -40 -230 -57 -200 -11 -638 -14 -678 -4 -31 8 -33 24 -2 24 12 0 33 6
48 13 14 8 50 17 80 20 29 4 81 20 114 36 33 16 89 35 125 41 36 7 69 17 74
21 6 5 11 34 12 65 2 36 8 62 20 75 22 25 26 24 73 -8z m312 -20 c13 -16 12
-17 -3 -4 -10 7 -18 15 -18 17 0 8 8 3 21 -13z m-1865 -59 c-3 -9 -6 -21 -7
-27 0 -7 -4 -3 -8 8 -9 22 -5 35 11 35 5 0 7 -7 4 -16z m1314 -24 c0 -5 -6
-10 -12 -10 -9 0 -8 -4 2 -11 14 -10 10 -15 -16 -22 -13 -3 -13 37 -1 45 17
11 27 10 27 -2z m-120 -65 c-7 -8 -16 -12 -21 -9 -13 8 -1 24 18 24 13 0 13
-3 3 -15z m-194 -54 c-9 -10 -14 -21 -9 -23 4 -3 2 -3 -4 -2 -7 2 -13 -5 -13
-16 0 -11 -7 -20 -16 -20 -17 0 -14 8 23 58 14 18 28 31 31 28 3 -3 -3 -14
-12 -25z m79 19 c3 -5 -1 -10 -9 -10 -9 0 -16 5 -16 10 0 6 4 10 9 10 6 0 13
-4 16 -10z"/>
<path d="M6140 9860 c-18 -14 -21 -20 -9 -20 9 0 24 9 34 20 23 26 8 26 -25 0z"/>
<path d="M6306 9501 c5 -5 25 -12 44 -15 l35 -7 -34 16 c-37 17 -60 20 -45 6z"/>
<path d="M6477 9429 c7 -7 15 -10 18 -7 3 3 -2 9 -12 12 -14 6 -15 5 -6 -5z"/>
<path d="M4265 9360 c-3 -6 1 -7 9 -4 18 7 21 14 7 14 -6 0 -13 -4 -16 -10z"/>
<path d="M6225 9357 c17 -8 68 -26 115 -41 47 -15 99 -34 117 -42 18 -7 35
-10 37 -5 3 5 -16 14 -42 22 -26 7 -78 25 -117 40 -38 14 -86 29 -105 33 l-35
7 30 -14z"/>
<path d="M7016 9114 c-32 -8 -96 -26 -142 -40 l-84 -25 67 -82 c85 -105 184
-207 200 -207 18 0 17 11 -12 124 -39 153 -32 172 28 84 55 -81 126 -170 154
-194 29 -25 72 -31 278 -40 77 -3 143 -8 147 -10 4 -3 5 1 3 8 -15 36 -499
374 -560 391 -11 3 -46 -1 -79 -9z m-71 -54 c-22 -10 -49 -19 -60 -19 -12 0
-5 7 20 18 22 11 49 19 60 19 13 0 5 -6 -20 -18z m-98 -32 c-3 -8 -6 -5 -6 6
-1 11 2 17 5 13 3 -3 4 -12 1 -19z m73 -78 c0 -5 -2 -10 -4 -10 -3 0 -8 5 -11
10 -3 6 -1 10 4 10 6 0 11 -4 11 -10z m30 -41 c0 -6 -4 -7 -10 -4 -5 3 -10 11
-10 16 0 6 5 7 10 4 6 -3 10 -11 10 -16z m79 -83 c13 -14 22 -29 20 -33 -2 -5
-17 6 -32 24 -33 38 -22 45 12 9z"/>
<path d="M5365 9040 c-3 -5 -1 -10 4 -10 6 0 11 5 11 10 0 6 -2 10 -4 10 -3 0
-8 -4 -11 -10z"/>
<path d="M5400 9029 c0 -5 5 -7 10 -4 6 3 10 8 10 11 0 2 -4 4 -10 4 -5 0 -10
-5 -10 -11z"/>
<path d="M5445 9029 c-11 -17 1 -21 15 -4 8 9 8 15 2 15 -6 0 -14 -5 -17 -11z"/>
<path d="M5490 9029 c0 -5 5 -7 10 -4 6 3 10 8 10 11 0 2 -4 4 -10 4 -5 0 -10
-5 -10 -11z"/>
<path d="M5520 9020 c0 -6 5 -8 10 -5 6 4 17 2 24 -5 8 -6 29 -10 47 -9 50 2
196 -10 254 -21 28 -5 77 -12 110 -15 33 -4 83 -11 111 -16 28 -5 64 -12 80
-15 71 -11 442 -108 467 -121 16 -8 35 -12 42 -9 7 2 16 2 20 -2 4 -4 39 -7
78 -7 76 -1 98 -9 217 -80 30 -18 66 -36 80 -40 l25 -7 -25 18 c-14 10 -72 47
-130 82 l-105 64 -62 -6 c-55 -5 -77 0 -175 33 -98 34 -343 98 -403 107 -74
10 -200 24 -255 29 -36 3 -83 8 -105 11 -22 3 -62 7 -90 9 -27 2 -87 6 -132
10 -61 5 -83 4 -83 -5z"/>
<path d="M5060 9430 c0 -5 4 -10 9 -10 6 0 13 5 16 10 3 6 -1 10 -9 10 -9 0
-16 -4 -16 -10z"/>
<path d="M4210 9006 c0 -2 9 -6 20 -9 11 -3 20 -1 20 4 0 5 -9 9 -20 9 -11 0
-20 -2 -20 -4z"/>
<path d="M4108 8963 c7 -3 16 -2 19 1 4 3 -2 6 -13 5 -11 0 -14 -3 -6 -6z"/>
<path d="M4750 8940 c0 -5 5 -10 11 -10 5 0 7 5 4 10 -3 6 -8 10 -11 10 -2 0
-4 -4 -4 -10z"/>
<path d="M3902 8877 c-23 -24 -28 -37 -14 -37 4 0 12 10 17 22 6 12 21 25 35
29 21 6 22 7 4 8 -11 1 -30 -9 -42 -22z"/>
<path d="M5580 8838 c-41 -17 -69 -33 -63 -35 7 -3 26 3 44 13 18 9 46 20 61
25 l29 8 -32 -57 c-24 -43 -27 -53 -12 -39 30 26 77 117 61 117 -7 0 -47 -15
-88 -32z"/>
<path d="M5470 8782 c-35 -23 -83 -62 -76 -62 8 0 106 71 106 76 0 6 -2 5 -30
-14z"/>
<path d="M5560 8709 c0 -5 5 -7 10 -4 6 3 10 8 10 11 0 2 -4 4 -10 4 -5 0 -10
-5 -10 -11z"/>
<path d="M5307 8639 c7 -7 15 -10 18 -7 3 3 -2 9 -12 12 -14 6 -15 5 -6 -5z"/>
<path d="M6430 8465 c0 -2 14 -11 30 -20 18 -9 30 -11 30 -5 0 6 -12 15 -26
20 -29 11 -34 12 -34 5z"/>
<path d="M6557 8409 c7 -7 15 -10 18 -7 3 3 -2 9 -12 12 -14 6 -15 5 -6 -5z"/>
<path d="M7712 7959 c-56 -21 -25 -76 54 -97 25 -7 52 -18 59 -26 8 -7 58 -23
112 -35 54 -13 130 -33 168 -46 74 -25 197 -49 215 -43 7 2 3 13 -9 27 -12 13
-21 27 -21 30 0 4 -20 27 -44 52 -52 52 -110 74 -301 113 -146 29 -204 36
-233 25z"/>
<path d="M2770 8803 c54 -62 131 -135 137 -130 5 5 -44 64 -79 96 -10 9 -30
28 -45 44 -40 41 -50 33 -13 -10z"/>
<path d="M2686 8755 c4 -8 8 -15 10 -15 2 0 4 7 4 15 0 8 -4 15 -10 15 -5 0
-7 -7 -4 -15z"/>
<path d="M2716 8702 c-9 -15 23 -59 49 -66 18 -5 18 -4 -2 12 -12 9 -26 28
-31 41 -6 16 -11 20 -16 13z"/>
<path d="M2990 8575 c0 -7 7 -12 15 -11 24 4 27 13 5 19 -13 3 -20 0 -20 -8z"/>
<path d="M7445 8380 c-3 -5 1 -10 10 -10 9 0 13 5 10 10 -3 6 -8 10 -10 10 -2
0 -7 -4 -10 -10z"/>
<path d="M7090 8371 c0 -6 5 -13 10 -16 6 -3 10 1 10 9 0 9 -4 16 -10 16 -5 0
-10 -4 -10 -9z"/>
<path d="M7590 8129 c0 -5 5 -7 10 -4 6 3 10 8 10 11 0 2 -4 4 -10 4 -5 0 -10
-5 -10 -11z"/>
<path d="M3630 8240 c0 -5 5 -10 11 -10 5 0 7 5 4 10 -3 6 -8 10 -11 10 -2 0
-4 -4 -4 -10z"/>
<path d="M3774 8175 c8 -8 18 -15 22 -15 3 0 1 7 -6 15 -7 8 -17 15 -22 15 -5
0 -3 -7 6 -15z"/>
<path d="M3722 8096 c20 -20 40 -36 44 -36 11 0 -17 30 -50 52 -29 19 -28 18
6 -16z"/>
<path d="M3655 8050 c16 -16 32 -30 36 -30 4 0 -6 14 -23 30 -16 17 -32 30
-36 30 -3 0 7 -13 23 -30z"/>
<path d="M4580 7986 c0 -2 9 -6 20 -9 11 -3 20 -1 20 4 0 5 -9 9 -20 9 -11 0
-20 -2 -20 -4z"/>
<path d="M2176 8115 c10 -8 26 -14 34 -14 9 0 4 6 -10 14 -33 19 -49 19 -24 0z"/>
<path d="M2285 8060 c3 -5 8 -10 11 -10 2 0 4 5 4 10 0 6 -5 10 -11 10 -5 0
-7 -4 -4 -10z"/>
<path d="M2581 7986 c14 -14 252 -127 256 -122 8 7 15 3 -77 48 -104 52 -195
89 -179 74z"/>
<path d="M7820 7096 c0 -2 11 -6 25 -8 14 -3 25 -1 25 3 0 5 -11 9 -25 9 -14
0 -25 -2 -25 -4z"/>
<path d="M6869 7318 c-6 -12 -4 -48 2 -48 5 0 9 11 9 25 0 21 -6 33 -11 23z"/>
<path d="M6835 7250 c-16 -7 -17 -9 -3 -9 9 -1 20 4 23 9 7 11 7 11 -20 0z"/>
<path d="M6910 7181 c0 -6 5 -13 10 -16 6 -3 10 1 10 9 0 9 -4 16 -10 16 -5 0
-10 -4 -10 -9z"/>
<path d="M3125 7131 c3 -5 1 -12 -5 -16 -13 -8 -13 -35 0 -35 5 0 12 11 16 23
4 19 11 23 32 20 23 -3 24 -2 7 6 -26 13 -58 14 -50 2z"/>
<path d="M6665 7100 c-3 -5 -1 -10 4 -10 6 0 11 5 11 10 0 6 -2 10 -4 10 -3 0
-8 -4 -11 -10z"/>
<path d="M6645 7030 c-3 -5 -1 -10 4 -10 6 0 11 5 11 10 0 6 -2 10 -4 10 -3 0
-8 -4 -11 -10z"/>
<path d="M5510 6970 c0 -5 5 -10 11 -10 5 0 7 5 4 10 -3 6 -8 10 -11 10 -2 0
-4 -4 -4 -10z"/>
<path d="M6534 6958 c-19 -21 -19 -21 6 -8 33 17 33 17 22 24 -5 3 -18 -4 -28
-16z"/>
<path d="M5468 6963 c7 -3 16 -2 19 1 4 3 -2 6 -13 5 -11 0 -14 -3 -6 -6z"/>
<path d="M3346 6946 c23 -16 74 -31 74 -22 0 7 -67 36 -83 36 -6 0 -2 -6 9
-14z"/>
<path d="M6481 6941 c-9 -6 -10 -11 -2 -15 13 -8 31 1 31 15 0 11 -11 11 -29
0z"/>
<path d="M3437 6919 c7 -7 15 -10 18 -7 3 3 -2 9 -12 12 -14 6 -15 5 -6 -5z"/>
<path d="M3475 6910 c-3 -5 1 -10 10 -10 9 0 13 5 10 10 -3 6 -8 10 -10 10 -2
0 -7 -4 -10 -10z"/>
<path d="M6435 6910 c-3 -5 1 -10 9 -10 8 0 18 5 21 10 3 6 -1 10 -9 10 -8 0
-18 -4 -21 -10z"/>
<path d="M3510 6899 c0 -5 5 -7 10 -4 6 3 10 8 10 11 0 2 -4 4 -10 4 -5 0 -10
-5 -10 -11z"/>
<path d="M6400 6901 c0 -6 -16 -13 -35 -17 -19 -3 -35 -10 -35 -16 0 -5 -4 -7
-9 -4 -10 7 -86 -23 -78 -30 6 -6 108 25 122 37 5 5 17 9 26 9 21 0 33 16 19
25 -5 3 -10 2 -10 -4z"/>
<path d="M3550 6890 c0 -5 6 -10 13 -11 6 0 26 -2 42 -4 l30 -3 -30 14 c-36
16 -55 17 -55 4z"/>
<path d="M3655 6870 c3 -5 11 -10 16 -10 6 0 7 5 4 10 -3 6 -11 10 -16 10 -6
0 -7 -4 -4 -10z"/>
<path d="M3695 6860 c4 -6 11 -8 16 -5 14 9 11 15 -7 15 -8 0 -12 -5 -9 -10z"/>
<path d="M3735 6850 c4 -6 11 -8 16 -5 14 9 11 15 -7 15 -8 0 -12 -5 -9 -10z"/>
<path d="M3770 6850 c0 -5 5 -10 10 -10 6 0 10 5 10 10 0 6 -4 10 -10 10 -5 0
-10 -4 -10 -10z"/>
<path d="M3810 6841 c0 -6 6 -11 13 -12 6 0 23 -2 37 -4 80 -13 101 -15 96 -7
-3 5 -27 12 -53 15 -26 4 -58 9 -70 13 -14 4 -23 2 -23 -5z"/>
<path d="M6200 6833 c-14 -3 -31 -10 -37 -15 -9 -7 -13 -7 -13 3 0 10 -3 10
-12 1 -6 -6 -9 -14 -6 -17 7 -8 98 17 98 27 0 4 -1 7 -2 7 -2 -1 -14 -4 -28
-6z"/>
<path d="M3970 6810 c0 -5 5 -10 11 -10 5 0 7 5 4 10 -3 6 -8 10 -11 10 -2 0
-4 -4 -4 -10z"/>
<path d="M4000 6808 c0 -8 17 -14 48 -15 48 -2 39 6 -20 21 -20 4 -28 2 -28
-6z"/>
<path d="M6096 6813 c-11 -11 -6 -23 9 -23 8 0 15 4 15 9 0 13 -16 22 -24 14z"/>
<path d="M4110 6790 c0 -5 5 -10 10 -10 6 0 10 5 10 10 0 6 -4 10 -10 10 -5 0
-10 -4 -10 -10z"/>
<path d="M4155 6790 c-3 -5 -1 -10 4 -10 6 0 11 5 11 10 0 6 -2 10 -4 10 -3 0
-8 -4 -11 -10z"/>
<path d="M6050 6790 c0 -5 4 -10 9 -10 6 0 13 5 16 10 3 6 -1 10 -9 10 -9 0
-16 -4 -16 -10z"/>
<path d="M4180 6780 c0 -5 7 -10 15 -10 8 0 15 5 15 10 0 6 -7 10 -15 10 -8 0
-15 -4 -15 -10z"/>
<path d="M5918 6783 c-28 -4 -36 -17 -19 -27 4 -3 11 -2 15 1 4 4 28 9 53 10
66 5 90 21 28 20 -28 0 -62 -2 -77 -4z"/>
<path d="M4225 6770 c3 -5 8 -10 11 -10 2 0 4 5 4 10 0 6 -5 10 -11 10 -5 0
-7 -4 -4 -10z"/>
<path d="M4250 6770 c0 -6 10 -10 23 -10 12 -1 47 -3 77 -5 45 -4 50 -3 25 5
-45 15 -125 21 -125 10z"/>
<path d="M5727 6764 c-7 -8 -12 -8 -123 -19 -107 -10 -125 -11 -186 -13 -32
-1 -58 -6 -58 -12 0 -8 81 -7 190 5 25 2 79 7 120 11 81 7 89 9 74 24 -6 6
-13 7 -17 4z"/>
<path d="M5783 6763 c-13 -2 -23 -9 -23 -15 0 -5 7 -7 16 -4 9 3 33 6 55 6 21
0 39 5 39 10 0 10 -44 11 -87 3z"/>
<path d="M4420 6752 c0 -9 71 -23 79 -16 7 7 -3 11 -41 18 -22 4 -38 3 -38 -2z"/>
<path d="M4515 6740 c3 -5 11 -10 16 -10 6 0 7 5 4 10 -3 6 -11 10 -16 10 -6
0 -7 -4 -4 -10z"/>
<path d="M4550 6741 c0 -6 5 -13 10 -16 6 -3 10 1 10 9 0 9 -4 16 -10 16 -5 0
-10 -4 -10 -9z"/>
<path d="M4590 6735 c0 -8 5 -15 10 -15 6 0 10 7 10 15 0 8 -4 15 -10 15 -5 0
-10 -7 -10 -15z"/>
<path d="M4631 6738 c-1 -15 8 -18 52 -19 28 -1 67 -2 85 -4 17 -1 32 1 32 6
0 5 -36 9 -79 9 -54 0 -81 4 -84 13 -3 7 -6 5 -6 -5z"/>
<path d="M4818 6713 c6 -2 18 -2 25 0 6 3 1 5 -13 5 -14 0 -19 -2 -12 -5z"/>
<path d="M4883 6713 c15 -2 39 -2 55 0 15 2 2 4 -28 4 -30 0 -43 -2 -27 -4z"/>
<path d="M4993 6713 c15 -2 39 -2 55 0 15 2 2 4 -28 4 -30 0 -43 -2 -27 -4z"/>
<path d="M5088 6713 c7 -3 16 -2 19 1 4 3 -2 6 -13 5 -11 0 -14 -3 -6 -6z"/>
<path d="M5173 6713 c26 -2 68 -2 95 0 26 2 4 3 -48 3 -52 0 -74 -1 -47 -3z"/>
<path d="M5328 6713 c7 -3 16 -2 19 1 4 3 -2 6 -13 5 -11 0 -14 -3 -6 -6z"/>
<path d="M5630 5508 c-62 -16 -178 -79 -212 -117 -104 -114 -140 -179 -162
-292 -33 -169 8 -313 123 -430 94 -96 191 -139 313 -139 68 0 186 24 231 46
124 64 225 188 243 302 4 24 10 44 14 47 10 6 1 196 -10 210 -5 7 -7 14 -4 17
18 19 -113 240 -157 264 -8 5 -38 24 -65 42 -27 18 -67 38 -89 44 -49 15 -178
18 -225 6z m221 -69 c64 -22 129 -108 129 -172 0 -37 -28 -108 -53 -136 -29
-31 -94 -61 -135 -61 -37 0 -97 23 -125 48 -52 47 -76 155 -47 212 48 94 142
138 231 109z"/>
<path d="M4750 5370 c0 -5 5 -10 10 -10 6 0 10 5 10 10 0 6 -4 10 -10 10 -5 0
-10 -4 -10 -10z"/>
<path d="M4860 5362 c0 -11 7 -23 16 -26 11 -4 15 0 12 16 -4 28 -28 36 -28
10z"/>
<path d="M4672 5305 c0 -16 2 -22 5 -12 2 9 2 23 0 30 -3 6 -5 -1 -5 -18z"/>
<path d="M4871 5304 c-8 -9 -10 -19 -5 -23 18 -12 12 -41 -8 -41 -12 0 -17 4
-12 13 6 10 4 10 -7 0 -20 -19 -31 -16 -24 7 4 11 2 20 -4 20 -6 0 -11 -9 -11
-20 0 -12 -7 -20 -17 -20 -9 0 -13 -3 -10 -7 4 -3 32 -7 62 -7 l55 -1 0 48 c0
26 -1 47 -2 47 -2 -1 -9 -8 -17 -16z"/>
<path d="M4727 5273 c-15 -14 -6 -19 25 -15 28 4 30 6 13 13 -26 10 -30 10
-38 2z"/>
<path d="M4694 5232 c5 -9 53 -8 63 1 3 4 -10 7 -31 7 -20 0 -35 -4 -32 -8z"/>
<path d="M7197 4543 c-4 -3 -7 -20 -7 -36 0 -38 10 -30 15 12 4 32 3 36 -8 24z"/>
<path d="M7151 4444 c0 -11 3 -14 6 -6 3 7 2 16 -1 19 -3 4 -6 -2 -5 -13z"/>
<path d="M7159 4382 c-3 -20 -2 -29 4 -23 5 5 7 19 5 32 -3 20 -5 19 -9 -9z"/>
<path d="M7131 4384 c0 -11 3 -14 6 -6 3 7 2 16 -1 19 -3 4 -6 -2 -5 -13z"/>
<path d="M7056 4334 c-4 -10 -1 -14 6 -12 15 5 23 28 10 28 -5 0 -13 -7 -16
-16z"/>
<path d="M7133 4325 c-6 -7 -8 -18 -3 -26 7 -11 10 -10 15 3 10 24 2 38 -12
23z"/>
<path d="M6995 4209 c-4 -6 -5 -12 -2 -15 2 -3 7 2 10 11 7 17 1 20 -8 4z"/>
<path d="M4833 4190 c-40 -16 -25 -28 55 -42 90 -17 110 -8 69 28 -30 25 -81
31 -124 14z"/>
<path d="M6955 4159 c-4 -6 -5 -12 -2 -15 2 -3 7 2 10 11 7 17 1 20 -8 4z"/>
<path d="M5355 4080 c27 -12 35 -12 35 0 0 6 -12 10 -27 9 -25 0 -26 -1 -8 -9z"/>
<path d="M6876 4037 c3 -10 9 -15 12 -12 3 3 0 11 -7 18 -10 9 -11 8 -5 -6z"/>
<path d="M6840 4016 c-6 -8 -21 -17 -33 -19 l-22 -4 21 -2 c12 0 32 8 45 19
13 10 19 19 13 20 -6 0 -17 -6 -24 -14z"/>
<path d="M5725 4012 c30 -13 100 -23 89 -12 -5 4 -31 11 -59 14 -32 4 -43 3
-30 -2z"/>
<path d="M5854 3991 c8 -12 46 -21 46 -11 0 8 -24 20 -41 20 -6 0 -8 -4 -5 -9z"/>
<path d="M5920 3990 c0 -5 5 -10 10 -10 6 0 10 5 10 10 0 6 -4 10 -10 10 -5 0
-10 -4 -10 -10z"/>
<path d="M6758 3983 c7 -3 16 -2 19 1 4 3 -2 6 -13 5 -11 0 -14 -3 -6 -6z"/>
<path d="M6155 3950 c-3 -5 -1 -10 4 -10 6 0 11 5 11 10 0 6 -2 10 -4 10 -3 0
-8 -4 -11 -10z"/>
<path d="M6555 3950 c-3 -5 -1 -10 4 -10 6 0 11 5 11 10 0 6 -2 10 -4 10 -3 0
-8 -4 -11 -10z"/>
<path d="M6298 3943 c7 -3 16 -2 19 1 4 3 -2 6 -13 5 -11 0 -14 -3 -6 -6z"/>
<path d="M6373 3943 c15 -2 37 -2 50 0 12 2 0 4 -28 4 -27 0 -38 -2 -22 -4z"/>
<path d="M2345 5001 c-7 -12 12 -24 25 -16 6 4 17 1 25 -5 11 -9 15 -9 15 -1
0 6 -12 16 -26 21 -31 12 -31 12 -39 1z"/>
<path d="M2230 4470 c-8 -5 -11 -12 -7 -16 4 -4 15 0 24 9 18 18 8 23 -17 7z"/>
<path d="M2175 4449 c-4 -6 -5 -12 -2 -15 2 -3 7 2 10 11 7 17 1 20 -8 4z"/>
<path d="M8420 4851 c0 -4 11 -6 25 -3 14 2 25 6 25 8 0 2 -11 4 -25 4 -14 0
-25 -4 -25 -9z"/>
<path d="M8380 4836 c0 -2 7 -7 16 -10 8 -3 12 -2 9 4 -6 10 -25 14 -25 6z"/>
<path d="M8495 4818 c-78 -10 -118 -30 -177 -89 -86 -86 -188 -266 -210 -371
-13 -64 -12 -68 57 -178 18 -30 39 -77 46 -104 11 -45 10 -70 -7 -198 -6 -40
-4 -47 15 -57 35 -19 113 -29 166 -21 l50 7 -68 2 c-69 1 -92 15 -69 44 13 17
29 73 37 130 6 45 8 48 31 43 14 -4 24 -2 24 4 0 5 8 10 18 10 9 0 25 7 35 15
11 7 25 11 33 8 8 -3 22 9 34 29 34 54 12 126 -60 198 -41 41 -117 83 -170 95
-49 11 -34 29 32 39 17 2 97 54 111 71 6 6 10 6 14 -2 2 -7 9 -13 14 -13 6 0
7 5 4 10 -3 6 1 10 10 10 9 0 13 -4 10 -10 -4 -6 12 -10 39 -10 25 0 46 -4 46
-10 0 -5 18 -10 40 -10 22 0 40 5 40 10 0 6 18 10 40 10 33 0 40 -3 40 -20 0
-11 7 -20 15 -20 9 0 20 -10 25 -22 5 -13 9 -18 9 -11 2 22 -11 43 -26 43 -12
0 -13 3 -4 14 10 11 9 21 -3 45 -20 38 -21 65 -1 31 54 -95 77 -188 78 -307 0
-51 4 -90 8 -87 4 2 17 46 29 97 48 199 -6 409 -131 508 -64 50 -151 76 -224
67z m205 -230 c0 -6 -7 -5 -15 2 -8 7 -15 17 -15 22 0 6 7 5 15 -2 8 -7 15
-17 15 -22z"/>
<path d="M8298 4403 c7 -3 16 -2 19 1 4 3 -2 6 -13 5 -11 0 -14 -3 -6 -6z"/>
<path d="M2934 4235 c10 -8 24 -11 29 -8 6 4 2 10 -9 14 -31 12 -40 9 -20 -6z"/>
<path d="M2990 4220 c0 -5 7 -10 15 -10 8 0 15 5 15 10 0 6 -7 10 -15 10 -8 0
-15 -4 -15 -10z"/>
<path d="M3050 4210 c0 -5 5 -10 11 -10 5 0 7 5 4 10 -3 6 -8 10 -11 10 -2 0
-4 -4 -4 -10z"/>
<path d="M3090 4200 c0 -5 5 -10 10 -10 6 0 10 5 10 10 0 6 -4 10 -10 10 -5 0
-10 -4 -10 -10z"/>
<path d="M3400 4170 c0 -5 5 -10 10 -10 6 0 10 5 10 10 0 6 -4 10 -10 10 -5 0
-10 -4 -10 -10z"/>
<path d="M3690 4039 c0 -5 5 -7 10 -4 6 3 10 8 10 11 0 2 -4 4 -10 4 -5 0 -10
-5 -10 -11z"/>
<path d="M3620 3944 c0 -8 5 -12 10 -9 6 3 10 10 10 16 0 5 -4 9 -10 9 -5 0
-10 -7 -10 -16z"/>
<path d="M3630 3390 c0 -5 5 -10 11 -10 5 0 7 5 4 10 -3 6 -8 10 -11 10 -2 0
-4 -4 -4 -10z"/>
<path d="M3572 3374 c-26 -18 -29 -37 -6 -32 9 2 20 13 25 26 10 26 10 26 -19
6z"/>
<path d="M3831 3024 c0 -11 3 -14 6 -6 3 7 2 16 -1 19 -3 4 -6 -2 -5 -13z"/>
<path d="M3832 2940 c0 -14 2 -19 5 -12 2 6 2 18 0 25 -3 6 -5 1 -5 -13z"/>
<path d="M4557 3353 c-4 -3 -7 -19 -7 -34 0 -21 4 -27 15 -23 8 4 15 1 15 -7
0 -7 2 -10 5 -8 2 3 -2 22 -9 42 -7 20 -16 34 -19 30z"/>
<path d="M4551 3258 c0 -13 4 -32 9 -43 7 -15 9 -10 9 23 1 23 -3 42 -9 42 -5
0 -10 -10 -9 -22z"/>
<path d="M4597 3169 c12 -12 25 -20 28 -17 3 3 -7 13 -22 23 l-28 17 22 -23z"/>
<path d="M4977 3274 c3 -7 9 -14 14 -14 14 0 10 17 -5 23 -10 4 -13 1 -9 -9z"/>
<path d="M5000 3111 c0 -6 4 -13 10 -16 6 -3 7 1 4 9 -7 18 -14 21 -14 7z"/>
<path d="M6350 1213 c0 -6 5 -15 10 -18 6 -3 10 -15 10 -26 0 -10 5 -19 10
-19 6 0 10 6 10 14 0 17 -39 66 -40 49z"/>
<path d="M5984 1061 c21 -23 26 -26 26 -11 0 5 -10 15 -22 21 -23 12 -23 12
-4 -10z"/>
<path d="M6312 1051 c7 -11 18 -23 25 -25 22 -9 14 8 -13 28 -25 18 -25 18
-12 -3z"/>
<path d="M5820 1040 c8 -5 20 -10 25 -10 6 0 3 5 -5 10 -8 5 -19 10 -25 10 -5
0 -3 -5 5 -10z"/>
<path d="M5589 999 l-24 -20 28 17 c15 9 27 18 27 20 0 8 -8 4 -31 -17z"/>
<path d="M6035 1010 c3 -5 11 -10 16 -10 6 0 7 5 4 10 -3 6 -11 10 -16 10 -6
0 -7 -4 -4 -10z"/>
<path d="M5524 954 c-18 -14 -18 -15 4 -4 12 6 22 13 22 15 0 8 -5 6 -26 -11z"/>
<path d="M5436 895 c-4 -13 -2 -14 14 -5 23 13 26 20 6 20 -8 0 -16 -7 -20
-15z"/>
<path d="M4016 954 c-4 -9 -4 -19 -1 -22 2 -3 7 3 11 12 4 9 4 19 1 22 -2 3
-7 -3 -11 -12z"/>
<path d="M4505 805 c17 -8 41 -14 55 -14 24 1 24 1 -5 14 -16 8 -41 14 -55 14
-24 -1 -24 -1 5 -14z"/>
<path d="M3757 1241 c-4 -17 -3 -21 5 -13 5 5 8 16 6 23 -3 8 -7 3 -11 -10z"/>
<path d="M3665 1060 c-16 -33 -26 -63 -22 -67 8 -8 6 -11 40 60 30 63 31 67
19 67 -5 0 -21 -27 -37 -60z"/>
<path d="M6630 1290 c0 -11 4 -20 9 -20 5 0 7 9 4 20 -3 11 -7 20 -9 20 -2 0
-4 -9 -4 -20z"/>
<path d="M5674 879 c-6 -10 12 -29 29 -29 9 0 9 4 1 24 -7 19 -20 21 -30 5z"/>
<path d="M5666 824 c-8 -21 -3 -26 18 -18 18 7 17 25 -1 31 -6 2 -13 -4 -17
-13z"/>
<path d="M5725 804 c-22 -8 -46 -17 -54 -19 -8 -3 -11 -8 -8 -11 5 -6 127 35
127 42 0 7 -25 3 -65 -12z"/>
</g>
</svg>
